<?xml version="1.0" encoding="UTF-8"?>
<svg xmlns="http://www.w3.org/2000/svg" xmlns:xlink="http://www.w3.org/1999/xlink" width="35px" height="35px" viewBox="0 0 35 35" version="1.1">
<g id="surface1">
<path style="fill-rule:nonzero;fill:rgb(100%,100%,100%);fill-opacity:1;stroke-width:1;stroke-linecap:butt;stroke-linejoin:miter;stroke:rgb(100%,100%,100%);stroke-opacity:1;stroke-miterlimit:4;" d="M 283.142857 122.171429 C 283.142857 127.428571 283.142857 144.514286 283.142857 168.742857 L 366.571429 168.742857 L 357.485714 243.142857 L 283.142857 243.142857 C 283.142857 357.828571 283.142857 511.485714 283.142857 511.485714 L 184.4 511.485714 C 184.4 511.485714 184.4 359.828571 184.4 243.142857 L 132.971429 243.142857 L 132.971429 168.742857 L 184.4 168.742857 C 184.4 139.257143 184.4 118.285714 184.4 112.457143 C 184.4 84.628571 182.285714 71.428571 194.114286 49.885714 C 205.942857 28.342857 239.314286 -0.171429 297.028571 0.514286 C 354.742857 1.2 379.028571 6.8 379.028571 6.8 L 366.571429 86.057143 C 366.571429 86.057143 329.714286 76.285714 311.6 79.771429 C 293.542857 83.257143 283.142857 94.342857 283.142857 122.171429 Z M 283.142857 122.171429 " transform="matrix(0.0683594,0,0,0.0683594,0,0)"/>
</g>
</svg>
