<?xml version="1.0" encoding="UTF-8"?>
<svg version="1.1" xmlns="http://www.w3.org/2000/svg" width="551" height="453">
<path d="M0 0 C1.87876668 -0.02166993 3.75743003 -0.05587797 5.63574219 -0.10253906 C8.35356371 -0.1693493 11.06931658 -0.19695436 13.7878418 -0.21606445 C15.04577293 -0.25781044 15.04577293 -0.25781044 16.32911682 -0.30039978 C18.61739282 -0.2923058 20.54852401 -0.21140648 22.75268555 0.4050293 C25.16015625 3.10449219 25.16015625 3.10449219 26.75268555 6.4050293 C27.18339355 7.29174316 27.61410156 8.17845703 28.05786133 9.09204102 C28.622229 10.44966553 28.622229 10.44966553 29.19799805 11.8347168 C29.63023682 12.8657251 30.06247559 13.8967334 30.5078125 14.95898438 C30.95987061 16.0549292 31.41192871 17.15087402 31.87768555 18.2800293 C32.35488037 19.42173584 32.8320752 20.56344238 33.32373047 21.73974609 C34.80685636 25.29205405 36.28101573 28.84796159 37.75268555 32.4050293 C39.10112787 35.6601681 40.45003773 38.91510616 41.80102539 42.16918945 C42.61303045 44.12722251 43.42219502 46.08643728 44.2277832 48.04711914 C46.16906392 52.74167057 48.18980524 57.37742574 50.3503418 61.9753418 C55.48483199 73.00924147 60.12608794 84.26518083 64.87768555 95.4675293 C65.9210633 97.92311763 66.96462324 100.37862735 68.00854492 102.83398438 C69.54731636 106.45348136 71.08599924 110.07301533 72.6239624 113.69285583 C76.15301777 121.99873079 79.69322609 130.29963779 83.25268555 138.5925293 C83.69692871 139.62772705 84.14117187 140.6629248 84.59887695 141.72949219 C85.49503426 143.81720921 86.39135659 145.9048554 87.2878418 147.99243164 C88.98590558 151.94835424 90.68200726 155.90511496 92.37768555 159.86206055 C92.69367203 160.59942947 93.00965851 161.3367984 93.33522034 162.09651184 C94.63090529 165.12015855 95.92652099 168.14383493 97.22213745 171.16751099 C98.17890139 173.40034388 99.13570066 175.63316163 100.0925293 177.8659668 C100.56020973 178.95732185 100.56020973 178.95732185 101.03733826 180.07072449 C102.98385843 184.61251969 104.93215341 189.15354839 106.8815918 193.6940918 C109.56852347 199.95328055 112.2497609 206.21488746 114.92803955 212.4777832 C115.8276263 214.58017024 116.728357 216.68206524 117.62915039 218.78393555 C119.27020309 222.61411871 120.90718496 226.44602181 122.54171753 230.2789917 C123.17890949 231.77159399 123.81734434 233.26366635 124.45706177 234.75518799 C125.34544127 236.82714903 126.2292914 238.90098547 127.11206055 240.9753418 C127.62220703 242.1691748 128.13235352 243.36300781 128.65795898 244.59301758 C129.75268555 247.4050293 129.75268555 247.4050293 129.75268555 249.4050293 C130.35688324 249.39836746 130.96108093 249.39170563 131.58358765 249.38484192 C137.9108952 249.31811947 144.23810169 249.27307644 150.56567383 249.24023438 C152.92248601 249.22521151 155.27927053 249.20478733 157.63598633 249.17871094 C161.03693496 249.14204109 164.43751176 249.12523733 167.83862305 249.11206055 C168.88069916 249.09657669 169.92277527 249.08109283 170.99642944 249.06513977 C180.87714727 249.0629015 189.35262638 250.72615621 196.60424805 257.7487793 C201.13174774 263.34641529 203.86376854 269.86840996 206.75268555 276.4050293 C207.16147949 277.30769531 207.57027344 278.21036133 207.99145508 279.14038086 C209.28159889 281.99278921 210.55259836 284.85282534 211.81518555 287.7175293 C212.22188477 288.63107178 212.62858398 289.54461426 213.04760742 290.48583984 C213.41563477 291.34218018 213.78366211 292.19852051 214.1628418 293.08081055 C214.49421143 293.84304932 214.82558105 294.60528809 215.16699219 295.390625 C215.75268555 297.4050293 215.75268555 297.4050293 214.75268555 300.4050293 C194.29268555 300.4050293 173.83268555 300.4050293 152.75268555 300.4050293 C155.18643555 306.1387793 157.62018555 311.8725293 160.12768555 317.7800293 C160.94487061 319.70564697 161.76205566 321.63126465 162.60400391 323.61523438 C166.65063869 333.14330187 170.71822992 342.66188536 174.8190918 352.16674805 C175.6422018 354.07705389 176.46528161 355.98737273 177.28833008 357.89770508 C178.48218944 360.66834391 179.67751284 363.43830097 180.87762451 366.20623779 C181.99465746 368.78262687 183.10653091 371.36118972 184.2175293 373.94018555 C184.54701065 374.69587326 184.876492 375.45156097 185.21595764 376.23014832 C187.07810456 380.56761836 188.55502904 384.83772061 189.75268555 389.4050293 C187.68632795 391.47138689 183.28622595 390.56913418 180.44018555 390.57299805 C179.5972998 390.57632645 178.75441406 390.57965485 177.88598633 390.58308411 C176.09367418 390.58816086 174.30135253 390.5904922 172.5090332 390.59033203 C169.79190935 390.59249803 167.0752051 390.61058814 164.3581543 390.62963867 C162.6146661 390.63257671 160.87117597 390.63455876 159.12768555 390.63549805 C158.32419678 390.64268356 157.52070801 390.64986908 156.69287109 390.65727234 C146.99566329 390.61887017 139.21621833 388.79206024 131.75268555 382.4050293 C126.45299577 376.05377938 123.03980013 369.16249005 120.00268555 361.5300293 C119.07692977 359.27113731 118.14830084 357.01342168 117.2175293 354.7565918 C116.9621489 354.1343573 116.70676849 353.5121228 116.44364929 352.87103271 C113.97456676 346.87948872 111.40178065 340.93427157 108.8190918 334.9909668 C108.38791046 333.99807648 107.95672913 333.00518616 107.51248169 331.98220825 C105.75902821 327.9467109 104.00428942 323.91178446 102.24523926 319.87872314 C101.00100193 317.02429979 99.76122912 314.16797368 98.5222168 311.3112793 C98.14150528 310.44159515 97.76079376 309.57191101 97.36854553 308.6758728 C97.02327316 307.8781546 96.67800079 307.0804364 96.32226562 306.25854492 C96.01791092 305.5597522 95.71355621 304.86095947 95.39997864 304.14099121 C94.75268555 302.4050293 94.75268555 302.4050293 94.75268555 300.4050293 C40.30268555 300.4050293 -14.14731445 300.4050293 -70.24731445 300.4050293 C-69.20311931 293.09566331 -66.95188037 287.23190596 -64.05712891 280.55395508 C-63.19323588 278.54956851 -62.35758178 276.53492332 -61.52270508 274.51831055 C-57.49973692 265.03399784 -52.80394161 256.2260706 -43.24731445 251.4050293 C-36.90859184 249.47352906 -31.11876298 249.10085736 -24.5168457 249.08618164 C-23.47204544 249.07613602 -22.42724518 249.06609039 -21.3507843 249.05574036 C-17.92046627 249.02501536 -14.49022591 249.00790284 -11.05981445 248.9909668 C-8.67227515 248.97224657 -6.28474241 248.95267253 -3.8972168 248.93228149 C2.36952848 248.8810447 8.63629518 248.84137367 14.90313721 248.80413818 C21.30486313 248.76404556 27.70650055 248.71297721 34.1081543 248.6628418 C46.65626803 248.56618257 59.2044326 248.48137273 71.75268555 248.4050293 C71.4758855 247.76495532 71.19908545 247.12488134 70.91389751 246.46541119 C48.42437782 194.45908869 48.42437782 194.45908869 40.78710938 175.98486328 C38.63443821 170.79595336 36.4275544 165.65327809 34.0456543 160.56518555 C29.30443017 150.39254942 24.9729247 140.03770583 20.56518555 129.7175293 C19.62274135 127.51452368 18.68019534 125.31156163 17.73754883 123.10864258 C11.68771741 108.96404387 5.66481057 94.80839144 -0.30688477 80.63061523 C-1.60849551 77.55027164 -2.92596656 74.47695274 -4.24731445 71.4050293 C-6.48386263 73.64157747 -7.21099993 75.37461357 -8.42041016 78.28588867 C-8.84734665 79.30541626 -9.27428314 80.32494385 -9.7141571 81.37536621 C-10.17498184 82.48859253 -10.63580658 83.60181885 -11.1105957 84.7487793 C-12.10822609 87.13313633 -13.10645659 89.51724233 -14.10522461 91.90112305 C-14.36320296 92.51854622 -14.62118132 93.13596939 -14.8869772 93.77210236 C-17.65081899 100.3844275 -20.46785448 106.97377242 -23.2902832 113.5612793 C-24.04693771 115.32846313 -24.04693771 115.32846313 -24.81887817 117.13134766 C-25.8428062 119.52218816 -26.86704736 121.91289457 -27.89160156 124.3034668 C-29.44573227 127.93050939 -30.9979147 131.55838192 -32.55004883 135.1862793 C-38.02363783 147.96786336 -43.54888851 160.72194043 -49.24731445 173.4050293 C-48.02737793 173.38931885 -46.80744141 173.3736084 -45.55053711 173.35742188 C-40.98452468 173.30274301 -36.41854066 173.26854223 -31.85229492 173.24023438 C-29.88349526 173.22523369 -27.91472852 173.20482646 -25.94604492 173.17871094 C-23.10107248 173.14194115 -20.25654533 173.12521543 -17.41137695 173.11206055 C-16.54429108 173.09657669 -15.6772052 173.08109283 -14.78384399 173.06513977 C-6.34012167 173.06286236 1.70947041 174.58181662 8.06518555 180.4675293 C8.84506836 181.15975586 9.62495117 181.85198242 10.4284668 182.56518555 C16.59736681 190.10264825 19.82194828 200.00921842 23.56518555 208.9050293 C24.06727539 210.08323242 24.56936523 211.26143555 25.08666992 212.4753418 C25.56040039 213.59682617 26.03413086 214.71831055 26.5222168 215.8737793 C26.95123291 216.88891602 27.38024902 217.90405273 27.82226562 218.94995117 C28.75268555 221.4050293 28.75268555 221.4050293 28.75268555 223.4050293 C17.89488098 224.10331479 7.08743978 224.48637657 -3.79418945 224.3972168 C-4.87075806 224.38934143 -5.94732666 224.38146606 -7.05651855 224.37335205 C-11.48763953 224.33716858 -15.91851497 224.29495806 -20.34936523 224.23364258 C-40.88586669 223.96638879 -57.96781062 224.03264542 -74.10668945 238.04956055 C-80.89668341 245.521032 -84.26938628 255.03396871 -88.12231445 264.2175293 C-88.78020891 265.77129927 -89.43883292 267.32476052 -90.09814453 268.87792969 C-91.46757572 272.10550756 -92.83386747 275.33438746 -94.19799805 278.56420898 C-97.10328262 285.43593733 -100.04802369 292.29070209 -102.99182129 299.14599609 C-104.55911777 302.79673173 -106.12385673 306.44856298 -107.6887207 310.1003418 C-107.99099579 310.80559998 -108.29327087 311.51085815 -108.60470581 312.23748779 C-111.03964547 317.91898616 -113.47141313 323.60183683 -115.90209961 329.28515625 C-116.87231366 331.55022423 -117.8446015 333.8144052 -118.8190918 336.07763672 C-121.16414571 341.52425182 -123.49187052 346.97662281 -125.76928711 352.451828 C-126.91208401 355.19309271 -128.06701895 357.92915743 -129.22357178 360.66464233 C-129.7716471 361.96914642 -130.31437275 363.27591397 -130.85113525 364.58511353 C-134.67328968 373.89985328 -138.71159677 382.97812147 -148.37231445 387.3425293 C-149.17926758 387.72280273 -149.9862207 388.10307617 -150.81762695 388.49487305 C-156.35715987 390.56997139 -161.64831171 390.53816582 -167.4855957 390.50268555 C-168.36636276 390.5012706 -169.24712982 390.49985565 -170.15458679 390.49839783 C-172.95636449 390.49281867 -175.75806107 390.48027 -178.55981445 390.4675293 C-180.46411017 390.4625116 -182.36840715 390.45794917 -184.27270508 390.45385742 C-188.93093926 390.44285606 -193.58911312 390.42560579 -198.24731445 390.4050293 C-199.44766869 386.80396659 -198.99670912 386.1599402 -197.53515625 382.77392578 C-197.13202713 381.82702377 -196.72889801 380.88012177 -196.31355286 379.90452576 C-195.86243637 378.87215286 -195.41131989 377.83977997 -194.9465332 376.77612305 C-194.48337204 375.69553116 -194.02021088 374.61493927 -193.54301453 373.50160217 C-192.01593618 369.94463529 -190.47542455 366.39365363 -188.93481445 362.8425293 C-187.87439627 360.38244502 -186.81691239 357.9211035 -185.75952148 355.4597168 C-183.61697814 350.47550917 -181.46866749 345.4938289 -179.31616211 340.51391602 C-176.58528896 334.19316766 -173.8704049 327.86574189 -171.1652832 321.53393555 C-164.66771837 306.32880051 -158.14285433 291.13586142 -151.55981445 275.9675293 C-149.45432101 271.11393705 -147.34980745 266.25992204 -145.24731445 261.4050293 C-144.76337219 260.2876236 -144.76337219 260.2876236 -144.26965332 259.14764404 C-142.16353148 254.28276938 -140.06209081 249.41590665 -137.96566772 244.54684448 C-137.28257564 242.96191474 -136.59820378 241.37753591 -135.9125061 239.79373169 C-134.9621021 237.59790834 -134.01626193 235.40017413 -133.0715332 233.2019043 C-132.78474701 232.54199997 -132.49796082 231.88209564 -132.20248413 231.20219421 C-130.72715705 227.92156308 -130.72715705 227.92156308 -130.24731445 224.4050293 C-131.12775925 224.40724991 -132.00820404 224.40947052 -132.91532898 224.41175842 C-141.31170398 224.43199814 -149.70807051 224.44712205 -158.10446453 224.45684147 C-162.41861215 224.46200665 -166.73273921 224.4689848 -171.046875 224.48046875 C-207.69722142 224.57556336 -207.69722142 224.57556336 -225.24731445 223.4050293 C-222.75009151 215.67733996 -219.75821023 208.28144779 -216.49731445 200.8425293 C-215.9971582 199.66239258 -215.49700195 198.48225586 -214.98168945 197.26635742 C-210.71588125 187.54314408 -206.07448793 179.96764555 -196.24731445 175.4050293 C-191.08128581 173.65810452 -186.33848315 173.10194971 -180.92529297 173.08618164 C-179.72407051 173.0711132 -179.72407051 173.0711132 -178.49858093 173.05574036 C-175.87446758 173.02506359 -173.25045552 173.00791672 -170.6262207 172.9909668 C-168.79775633 172.97224265 -166.96930048 172.95266831 -165.14085388 172.93228149 C-160.34547975 172.88108601 -155.55007764 172.84139312 -150.75457764 172.80413818 C-145.85430044 172.76401943 -140.95413836 172.71296308 -136.05395508 172.6628418 C-126.45182255 172.5662316 -116.84962483 172.48177935 -107.24731445 172.4050293 C-105.49974449 168.37531808 -103.75250372 164.34546432 -102.00553894 160.31549072 C-101.41397005 158.95095167 -100.82231861 157.5864484 -100.23057556 156.22198486 C-96.3213442 147.20773772 -92.42812544 138.18693122 -88.55981445 129.1550293 C-88.2653392 128.46762665 -87.97086395 127.780224 -87.66746521 127.07199097 C-86.97749869 125.46053458 -86.28816613 123.84880679 -85.59887695 122.23706055 C-83.07511026 116.33764741 -80.54853366 110.4394419 -78.02075195 104.54174805 C-77.46368813 103.24203316 -77.46368813 103.24203316 -76.89537048 101.9160614 C-75.35441505 98.32088325 -73.81339066 94.72573465 -72.27236938 91.13058472 C-71.11163983 88.42260172 -69.95094682 85.71460306 -68.7902832 83.0065918 C-68.40860489 82.1160762 -68.02692657 81.22556061 -67.63368225 80.30805969 C-64.79444562 73.68307346 -61.95716256 67.0572527 -59.12213135 60.4304657 C-57.5466069 56.74860018 -55.96861597 53.06783577 -54.38452148 49.38964844 C-53.78530832 47.9976796 -53.1861854 46.60567192 -52.5871582 45.21362305 C-52.29983826 44.54595413 -52.01251831 43.87828522 -51.7164917 43.19038391 C-49.89892623 38.95529163 -48.12635755 34.70371849 -46.3762207 30.44018555 C-45.93729492 29.38726318 -45.49836914 28.33434082 -45.04614258 27.24951172 C-44.26320643 25.36901164 -43.49328622 23.48299443 -42.74145508 21.58984375 C-39.4117022 13.66623655 -34.49522345 6.64783485 -26.55981445 2.9050293 C-18.03330679 -0.46192803 -9.0168874 0.07827022 0 0 Z " fill="#38B6E0" transform="translate(282.247314453125,25.594970703125)"/>
<path d="M0 0 C0.5625 1.9375 0.5625 1.9375 1 4 C0.67 4.33 0.34 4.66 0 5 C-0.23075082 6.34747084 -0.41153063 7.70377565 -0.5625 9.0625 C-0.706875 10.361875 -0.85125 11.66125 -1 13 C-1.66 13 -2.32 13 -3 13 C-3 13.99 -3 14.98 -3 16 C7.12760874 16.02324466 17.25521105 16.04097663 27.38284111 16.05181217 C32.08629173 16.05701458 36.789724 16.06406388 41.49316406 16.07543945 C46.0383942 16.08636268 50.58360677 16.09229671 55.12884903 16.09487724 C56.85664267 16.09671457 58.58443543 16.10030219 60.31222153 16.10573006 C68.05674042 16.12907596 75.70826373 16.14935329 83.40914917 15.22584534 C89.67349585 14.67978013 96.00501007 14.87997375 102.2890625 14.90234375 C103.84418695 14.90421263 105.399312 14.90563431 106.95443726 14.90663147 C111.01497063 14.91041963 115.07546729 14.9202176 119.13598633 14.93133545 C123.29247542 14.94162984 127.44897054 14.94614617 131.60546875 14.95117188 C139.73699587 14.96184379 147.86849335 14.97887485 156 15 C156.33 14.01 156.66 13.02 157 12 C161.455 12.99 161.455 12.99 166 14 C166 15.98 166 17.96 166 20 C165.01 20 164.02 20 163 20 C163 20.66 163 21.32 163 22 C163.66 22 164.32 22 165 22 C165.33730842 23.43657245 165.66969591 24.87430093 166 26.3125 C166.185625 27.11300781 166.37125 27.91351563 166.5625 28.73828125 C167 31 167 31 167 34 C167.66 34 168.32 34 169 34 C170.02104551 34.97850195 171.0206121 35.97980427 172 37 C172.66 37.33 173.32 37.66 174 38 C174 41.96 174 45.92 174 50 C174.66 50 175.32 50 176 50 C176 50.99 176 51.98 176 53 C176.99 53.33 177.98 53.66 179 54 C179.33 53.34 179.66 52.68 180 52 C180.66 52.33 181.32 52.66 182 53 C182 55.66666667 182 58.33333333 182 61 C181.34 61 180.68 61 180 61 C180.46853622 63.99405579 180.46853622 63.99405579 182 67 C185.52451159 68.46022435 185.52451159 68.46022435 189 69 C188.67 69.99 188.34 70.98 188 72 C188.66 72.33 189.32 72.66 190 73 C189.79375 73.721875 189.5875 74.44375 189.375 75.1875 C188.93137079 78.51471905 189.64005745 79.97790544 191 83 C191.12375 83.886875 191.2475 84.77375 191.375 85.6875 C191.58125 86.450625 191.7875 87.21375 192 88 C192.598125 88.28875 193.19625 88.5775 193.8125 88.875 C197.33516714 90.68665738 198.27153007 93.48132906 200 97 C200 97.99 200 98.98 200 100 C200.70125 99.95875 201.4025 99.9175 202.125 99.875 C205.38733531 100.01684067 207.92862782 100.93169663 211 102 C211.99 102 212.98 102 214 102 C214 102.99 214 103.98 214 105 C217.77076545 105.05899621 221.54140926 105.09392568 225.3125 105.125 C226.36501953 105.14175781 227.41753906 105.15851563 228.50195312 105.17578125 C235.55781803 105.21920196 242.10987473 104.5223667 249 103 C249 102.34 249 101.68 249 101 C248.01 101 247.02 101 246 101 C246.20625 100.29875 246.4125 99.5975 246.625 98.875 C247.07850357 95.39813928 246.27540277 93.22601877 245 90 C244.01 90 243.02 90 242 90 C241 84.25 241 84.25 241 82 C240.01 82.33 239.02 82.66 238 83 C238 82.34 238 81.68 238 81 C238.66 81 239.32 81 240 81 C239.34 80.01 238.68 79.02 238 78 C237.3671875 75.73828125 237.3671875 75.73828125 236.875 73.3125 C236.70742188 72.50425781 236.53984375 71.69601562 236.3671875 70.86328125 C236.24601563 70.24839844 236.12484375 69.63351562 236 69 C235.34 69 234.68 69 234 69 C233.34 68.34 232.68 67.68 232 67 C231.34 66.67 230.68 66.34 230 66 C230.33 65.01 230.66 64.02 231 63 C231 58.95343172 230.02199632 55.52065242 228 52 C225.45948786 51.02389158 225.45948786 51.02389158 223 51 C220.80781811 46.61563621 221.84225351 40.63098598 223 36 C222.34 36 221.68 36 221 36 C221 35.34 221 34.68 221 34 C218.525 34.495 218.525 34.495 216 35 C213.74128183 28.78852503 213.3209404 22.58088641 214 16 C216.76477453 13.23522547 219.1966753 13.47541559 223 13 C223.66 12.67 224.32 12.34 225 12 C225 12.66 225 13.32 225 14 C234.76467994 15.28720807 244.48536366 15.07758995 254.3125 15 C257.72525735 14.97333039 261.13795867 14.95340222 264.55078125 14.9375 C265.32480789 14.92920166 266.09883453 14.92090332 266.89631653 14.91235352 C270.72990552 14.89496221 274.27458098 15.06276446 278 16 C278 16.33 278 16.66 278 17 C257.87 17 237.74 17 217 17 C220.26272308 25.48308001 223.58054063 33.8573821 227.1875 42.1875 C227.95463348 43.97079259 228.72175954 45.75408837 229.4887085 47.53746033 C231.74751048 52.78666395 234.01393813 58.03257702 236.28076172 63.27832031 C238.32483598 68.00925574 240.36454143 72.74205905 242.4022522 77.47573853 C243.21340938 79.35761428 244.02619882 81.23878736 244.84066772 83.11923218 C245.99403313 85.78225146 247.14205792 88.44751729 248.2890625 91.11328125 C248.63440536 91.90703156 248.97974823 92.70078186 249.33555603 93.51858521 C251.23955497 97.96024671 252.77992627 102.32253362 254 107 C251.9336424 109.0663576 247.53354041 108.16410489 244.6875 108.16796875 C243.84461426 108.17129715 243.00172852 108.17462555 242.13330078 108.17805481 C240.34098863 108.18313157 238.54866699 108.18546291 236.75634766 108.18530273 C234.0392238 108.18746873 231.32251956 108.20555885 228.60546875 108.22460938 C226.86198055 108.22754741 225.11849042 108.22952946 223.375 108.23046875 C222.57151123 108.23765427 221.76802246 108.24483978 220.94018555 108.25224304 C211.24297774 108.21384087 203.46353278 106.38703094 196 100 C190.70031022 93.64875008 187.28711458 86.75746076 184.25 79.125 C183.32424422 76.86610801 182.39561529 74.60839238 181.46484375 72.3515625 C181.20946335 71.729328 180.95408295 71.10709351 180.69096375 70.46600342 C178.22188121 64.47445943 175.64909511 58.52924227 173.06640625 52.5859375 C172.63522491 51.59304718 172.20404358 50.60015686 171.75979614 49.57717896 C170.00634266 45.5416816 168.25160387 41.50675516 166.49255371 37.47369385 C165.24831639 34.6192705 164.00854358 31.76294439 162.76953125 28.90625 C162.38881973 28.03656586 162.00810822 27.16688171 161.61585999 26.27084351 C161.09795143 25.0742662 161.09795143 25.0742662 160.56958008 23.85351562 C160.26522537 23.1547229 159.96087067 22.45593018 159.64729309 21.73596191 C159 20 159 20 159 18 C104.55 18 50.1 18 -6 18 C-5.22364406 12.56550842 -4.68542447 9.73126622 -2.4375 5.0625 C-1.98246094 4.10472656 -1.52742187 3.14695312 -1.05859375 2.16015625 C-0.70925781 1.44730469 -0.35992187 0.73445313 0 0 Z " fill="#3CCFD3" transform="translate(218,308)"/>
<path d="M0 0 C1.31456052 3.94368155 0.34909552 5.1147495 -1.32421875 8.87109375 C-1.85208984 10.07056641 -2.37996094 11.27003906 -2.92382812 12.50585938 C-3.51167615 13.81642536 -4.09956796 15.12697171 -4.6875 16.4375 C-5.28819561 17.79574408 -5.88779035 19.15447552 -6.48632812 20.51367188 C-7.71984234 23.31381214 -8.95718552 26.11221347 -10.19677734 28.90966797 C-12.85215338 34.91656821 -15.42332163 40.9589858 -18 47 C-18.9829495 49.28651139 -19.96602377 51.57296915 -20.94921875 53.859375 C-22.83433547 58.25285864 -24.69499939 62.65533025 -26.53103638 67.06945801 C-27.67145867 69.80485933 -28.82402668 72.53505553 -29.97827148 75.26464844 C-30.52551224 76.56700776 -31.06737374 77.87164328 -31.60327148 79.17871094 C-35.42560103 88.49389656 -39.46376366 97.57285786 -49.125 101.9375 C-49.93195313 102.31777344 -50.73890625 102.69804687 -51.5703125 103.08984375 C-57.10984542 105.16494209 -62.40099726 105.13313652 -68.23828125 105.09765625 C-69.11904831 105.0962413 -69.99981537 105.09482635 -70.90727234 105.09336853 C-73.70905003 105.08778937 -76.51074662 105.07524071 -79.3125 105.0625 C-81.21679572 105.05748231 -83.12109269 105.05291987 -85.02539062 105.04882812 C-89.68362481 105.03782677 -94.34179867 105.02057649 -99 105 C-100.22680654 101.31958037 -99.66223041 100.55112323 -98.16088867 97.06738281 C-97.73261276 96.06072571 -97.30433685 95.0540686 -96.86308289 94.01690674 C-96.14775139 92.37658478 -96.14775139 92.37658478 -95.41796875 90.703125 C-94.92976151 89.56333191 -94.44155426 88.42353882 -93.93855286 87.24920654 C-92.62911493 84.19717244 -91.31140062 81.14898698 -89.98962402 78.10229492 C-88.68719112 75.09466793 -87.39596043 72.08224218 -86.10351562 69.0703125 C-84.07420993 64.34525092 -82.03406611 59.62509164 -79.98583984 54.90820312 C-77.99959018 50.32982226 -76.04360443 45.74028641 -74.11181641 41.13867188 C-73.65801102 40.06752136 -73.20420563 38.99637085 -72.73664856 37.89276123 C-71.88225647 35.87493632 -71.03604353 33.85362254 -70.19926453 31.82843018 C-69.82066788 30.93984314 -69.44207123 30.0512561 -69.05200195 29.13574219 C-68.72633743 28.35720886 -68.40067291 27.57867554 -68.06513977 26.77655029 C-67 25 -67 25 -64 24 C-64.73869641 29.48745903 -65.39062046 34.10741336 -68 39 C-68.33 39.66 -68.66 40.32 -69 41 C-69.66 41 -70.32 41 -71 41 C-71.103125 42.258125 -71.20625 43.51625 -71.3125 44.8125 C-71.64858808 47.60499657 -71.80025876 48.74433121 -73.5625 51 C-74.2740625 51.495 -74.2740625 51.495 -75 52 C-73.68 52 -72.36 52 -71 52 C-71.125 53.8125 -71.125 53.8125 -72 56 C-73.4540625 56.680625 -73.4540625 56.680625 -74.9375 57.375 C-78.24375193 58.71770423 -78.24375193 58.71770423 -79.25 61.9375 C-79.4975 62.948125 -79.745 63.95875 -80 65 C-80.63815344 66.34721283 -81.29325371 67.68747118 -82 69 C-81.34 69 -80.68 69 -80 69 C-79.505 67.515 -79.505 67.515 -79 66 C-79 67.98 -79 69.96 -79 72 C-79.598125 72.061875 -80.19625 72.12375 -80.8125 72.1875 C-83.93856613 73.34861028 -84.5331151 75.06623019 -86 78 C-87.96458812 82.58403895 -89.16684284 85.88883425 -88.5 90.875 C-88.08161833 94.49744386 -87.93645422 97.45484739 -89 101 C-85.3713002 102.2095666 -82.08288943 102.06542228 -78.3125 102 C-72.78277873 101.94534867 -67.46105659 102.0898239 -62 103 C-62 102.34 -62 101.68 -62 101 C-61.34 101 -60.68 101 -60 101 C-59.505 99.02 -59.505 99.02 -59 97 C-58.01 97.66 -57.02 98.32 -56 99 C-55.1646875 98.505 -55.1646875 98.505 -54.3125 98 C-51.69715478 96.8690399 -49.8193354 96.84337026 -47 97 C-47 94.36 -47 91.72 -47 89 C-45.8553125 89.556875 -45.8553125 89.556875 -44.6875 90.125 C-43.800625 90.41375 -42.91375 90.7025 -42 91 C-41.01 90.34 -40.02 89.68 -39 89 C-39 87.68 -39 86.36 -39 85 C-38.34 85 -37.68 85 -37 85 C-37.33 84.01 -37.66 83.02 -38 82 C-37.505 80.515 -37.505 80.515 -37 79 C-37.87483915 76.83284443 -37.87483915 76.83284443 -39 75 C-38.34 74.34 -37.68 73.68 -37 73 C-36.34 73.33 -35.68 73.66 -35 74 C-34.505 72.515 -34.505 72.515 -34 71 C-33.34 71 -32.68 71 -32 71 C-31.01 68.69 -30.02 66.38 -29 64 C-29.66 64 -30.32 64 -31 64 C-31 61.69 -31 59.38 -31 57 C-29.68 57.66 -28.36 58.32 -27 59 C-24.65117776 56.65117776 -23.96496976 54.72876333 -22.8125 51.625 C-22.44769531 50.66851562 -22.08289063 49.71203125 -21.70703125 48.7265625 C-20.97234588 45.89335595 -21.11760749 44.71276075 -22 42 C-21.7215625 40.9790625 -21.7215625 40.9790625 -21.4375 39.9375 C-21.293125 39.298125 -21.14875 38.65875 -21 38 C-21.66 37.01 -22.32 36.02 -23 35 C-20.64561267 33.57055055 -19.51967567 32.91338739 -16.75 33.375 C-16.1725 33.58125 -15.595 33.7875 -15 34 C-15 32.68 -15 31.36 -15 30 C-14.505 29.505 -14.505 29.505 -14 29 C-14.495 27.515 -14.495 27.515 -15 26 C-14.365555 22.06644102 -13.21117369 18.88085359 -9.9375 16.5 C-7.63356145 14.71630564 -7.53736169 13.77636874 -7 11 C-6.34 10.34 -5.68 9.68 -5 9 C-4.60235737 7.01178687 -4.26224651 5.01055661 -4 3 C-2.68 2.67 -1.36 2.34 0 2 C0 1.34 0 0.68 0 0 Z M-59 100 C-58.34 100.66 -57.68 101.32 -57 102 C-57 101.34 -57 100.68 -57 100 C-57.66 100 -58.32 100 -59 100 Z " fill="#32DCD3" transform="translate(183,311)"/>
<path d="M0 0 C0.5625 1.9375 0.5625 1.9375 1 4 C0.67 4.33 0.34 4.66 0 5 C-0.23075082 6.34747084 -0.41153063 7.70377565 -0.5625 9.0625 C-0.706875 10.361875 -0.85125 11.66125 -1 13 C-1.66 13 -2.32 13 -3 13 C-3 13.99 -3 14.98 -3 16 C7.12760874 16.02324466 17.25521105 16.04097663 27.38284111 16.05181217 C32.08629173 16.05701458 36.789724 16.06406388 41.49316406 16.07543945 C46.0383942 16.08636268 50.58360677 16.09229671 55.12884903 16.09487724 C56.85664267 16.09671457 58.58443543 16.10030219 60.31222153 16.10573006 C68.05674042 16.12907596 75.70826373 16.14935329 83.40914917 15.22584534 C89.67349585 14.67978013 96.00501007 14.87997375 102.2890625 14.90234375 C103.84418695 14.90421263 105.399312 14.90563431 106.95443726 14.90663147 C111.01497063 14.91041963 115.07546729 14.9202176 119.13598633 14.93133545 C123.29247542 14.94162984 127.44897054 14.94614617 131.60546875 14.95117188 C139.73699587 14.96184379 147.86849335 14.97887485 156 15 C156.33 14.01 156.66 13.02 157 12 C161.455 12.99 161.455 12.99 166 14 C166 15.98 166 17.96 166 20 C165.01 20 164.02 20 163 20 C163 20.66 163 21.32 163 22 C163.66 22 164.32 22 165 22 C165.33730842 23.43657245 165.66969591 24.87430093 166 26.3125 C166.185625 27.11300781 166.37125 27.91351563 166.5625 28.73828125 C167 31 167 31 167 34 C167.66 34 168.32 34 169 34 C170.02104551 34.97850195 171.0206121 35.97980427 172 37 C172.66 37.33 173.32 37.66 174 38 C174 41.96 174 45.92 174 50 C174.66 50 175.32 50 176 50 C176 50.99 176 51.98 176 53 C176.99 53.33 177.98 53.66 179 54 C179.33 53.34 179.66 52.68 180 52 C180.66 52.33 181.32 52.66 182 53 C182 55.66666667 182 58.33333333 182 61 C181.34 61 180.68 61 180 61 C180.350625 61.9075 180.70125 62.815 181.0625 63.75 C182.00170571 67.00591313 181.95514676 67.92749994 181 71 C177.86179121 63.77562964 174.72920719 56.54884001 171.60058594 49.3203125 C170.53524217 46.85960441 169.46809066 44.39969211 168.39941406 41.94042969 C166.86703888 38.41227088 165.33930822 34.88213331 163.8125 31.3515625 C163.33127686 30.24632233 162.85005371 29.14108215 162.35424805 28.00234985 C161.69356323 26.47098892 161.69356323 26.47098892 161.01953125 24.90869141 C160.62870361 24.00712311 160.23787598 23.10555481 159.83520508 22.17666626 C159 20 159 20 159 18 C104.55 18 50.1 18 -6 18 C-5.22364406 12.56550842 -4.68542447 9.73126622 -2.4375 5.0625 C-1.98246094 4.10472656 -1.52742187 3.14695312 -1.05859375 2.16015625 C-0.70925781 1.44730469 -0.35992187 0.73445313 0 0 Z " fill="#3AD1DF" transform="translate(218,308)"/>
<path d="M0 0 C1.32 0.66 2.64 1.32 4 2 C3.71517632 3.41805831 3.42181856 4.83440379 3.125 6.25 C2.96257812 7.03890625 2.80015625 7.8278125 2.6328125 8.640625 C2.00849925 10.96831144 1.15161458 12.89031952 0 15 C-0.99 14.67 -1.98 14.34 -3 14 C-3.02578125 14.74765625 -3.0515625 15.4953125 -3.078125 16.265625 C-3.54570434 24.38450266 -3.54570434 24.38450266 -5.9375 27.625 C-8 29 -8 29 -10 30 C-11.78829745 34.62853457 -13 39.02941063 -13 44 C-13 46.82920073 -13.35420121 49.25535514 -14 52 C-15.65 52.33 -17.3 52.66 -19 53 C-19.350625 54.2375 -19.70125 55.475 -20.0625 56.75 C-20.25972656 57.44609375 -20.45695312 58.1421875 -20.66015625 58.859375 C-21.18479423 61.0076097 -21.18479423 61.0076097 -20.24609375 62.953125 C-20 65 -20 65 -21.91557312 67.5867157 C-26.07513912 70.84119886 -28.96677085 70.7114624 -34.10473633 70.65942383 C-35.01254852 70.66990753 -35.92036072 70.68039124 -36.85568237 70.69119263 C-39.84814684 70.71993123 -42.83945356 70.71365243 -45.83203125 70.70703125 C-47.9099828 70.72014698 -49.9879216 70.73545082 -52.06584167 70.75285339 C-57.52882604 70.79273062 -62.9914771 70.80289564 -68.45458984 70.80688477 C-74.03167855 70.816211 -79.608571 70.8536214 -85.18554688 70.88867188 C-96.12368873 70.95327559 -107.06168406 70.9864929 -118 71 C-114.01389735 67.01389735 -108.24587122 67.83572964 -102.9050293 67.79467773 C-102.10450638 67.78477814 -101.30398346 67.77487854 -100.47920227 67.76467896 C-97.84423742 67.73319723 -95.20925456 67.70835945 -92.57421875 67.68359375 C-90.74290001 67.6630127 -88.9115859 67.64201593 -87.08027649 67.62062073 C-82.26841996 67.56551889 -77.45652141 67.51605733 -72.64459229 67.46777344 C-67.73112259 67.41747145 -62.81771366 67.36183084 -57.90429688 67.30664062 C-48.26958321 67.19920452 -38.6348167 67.09772743 -29 67 C-19.174213 44.36294756 -19.174213 44.36294756 -9.4375 21.6875 C-6.34138304 14.43552135 -3.23047517 7.19331439 0 0 Z " fill="#56A4D8" transform="translate(204,131)"/>
<path d="M0 0 C0.93134766 0.00322266 1.86269531 0.00644531 2.82226562 0.00976562 C4.26182617 0.02233398 4.26182617 0.02233398 5.73046875 0.03515625 C6.70951172 0.03966797 7.68855469 0.04417969 8.69726562 0.04882812 C11.10422986 0.06056941 13.51106732 0.07699206 15.91796875 0.09765625 C16.41296875 1.08765625 16.41296875 1.08765625 16.91796875 2.09765625 C15.93054688 2.06285156 14.943125 2.02804688 13.92578125 1.9921875 C12.00378906 1.95158203 12.00378906 1.95158203 10.04296875 1.91015625 C8.76679688 1.87535156 7.490625 1.84054688 6.17578125 1.8046875 C4.56316406 1.94970703 4.56316406 1.94970703 2.91796875 2.09765625 C2.25796875 3.08765625 1.59796875 4.07765625 0.91796875 5.09765625 C0.25796875 4.43765625 -0.40203125 3.77765625 -1.08203125 3.09765625 C-1.98953125 3.40703125 -2.89703125 3.71640625 -3.83203125 4.03515625 C-7.43978352 5.21461372 -10.28742671 6.09765625 -14.08203125 6.09765625 C-14.39140625 7.04640625 -14.70078125 7.99515625 -15.01953125 8.97265625 C-16.08203125 12.09765625 -16.08203125 12.09765625 -17.08203125 14.09765625 C-19.39203125 14.09765625 -21.70203125 14.09765625 -24.08203125 14.09765625 C-23.75203125 15.08765625 -23.42203125 16.07765625 -23.08203125 17.09765625 C-22.09203125 17.42765625 -21.10203125 17.75765625 -20.08203125 18.09765625 C-20.08203125 18.75765625 -20.08203125 19.41765625 -20.08203125 20.09765625 C-21.15453125 20.22140625 -22.22703125 20.34515625 -23.33203125 20.47265625 C-26.11721844 21.24254539 -26.91347354 21.82872148 -28.47265625 24.31640625 C-30.95523773 30.08018333 -30.95523773 30.08018333 -30.08203125 36.09765625 C-30.74203125 36.09765625 -31.40203125 36.09765625 -32.08203125 36.09765625 C-31.42203125 39.39765625 -30.76203125 42.69765625 -30.08203125 46.09765625 C-31.40203125 46.09765625 -32.72203125 46.09765625 -34.08203125 46.09765625 C-34.08203125 45.10765625 -34.08203125 44.11765625 -34.08203125 43.09765625 C-34.74203125 43.09765625 -35.40203125 43.09765625 -36.08203125 43.09765625 C-37.9397989 46.23263917 -38.28343601 48.47237057 -38.08203125 52.09765625 C-37.42203125 52.09765625 -36.76203125 52.09765625 -36.08203125 52.09765625 C-37.13357764 58.4069346 -37.13357764 58.4069346 -39.08203125 61.09765625 C-40.59796875 61.59265625 -40.59796875 61.59265625 -42.14453125 62.09765625 C-43.59859375 62.59265625 -43.59859375 62.59265625 -45.08203125 63.09765625 C-46.22444633 65.46408749 -46.08192374 67.0999139 -45.95703125 69.72265625 C-45.99828125 70.50640625 -46.03953125 71.29015625 -46.08203125 72.09765625 C-47.56703125 73.08765625 -47.56703125 73.08765625 -49.08203125 74.09765625 C-49.42545574 75.42842614 -49.75822999 76.76197604 -50.08203125 78.09765625 C-51.51953125 79.84765625 -51.51953125 79.84765625 -53.08203125 81.09765625 C-53.74203125 81.09765625 -54.40203125 81.09765625 -55.08203125 81.09765625 C-52.38611277 72.28369399 -48.68034295 63.91633834 -45.01953125 55.47265625 C-44.00143338 53.12046208 -42.98358883 50.7681585 -41.96586609 48.415802 C-41.28972784 46.85329721 -40.61306404 45.29101972 -39.93586731 43.72897339 C-37.96366644 39.1711289 -36.03739637 34.59847188 -34.15234375 30.00390625 C-33.72187744 28.96959473 -33.29141113 27.9352832 -32.84790039 26.86962891 C-32.07780461 25.01571198 -31.3205079 23.1563938 -30.57983398 21.29052734 C-27.2479949 13.36403057 -22.33382893 6.34229594 -14.39453125 2.59765625 C-9.65091782 0.72449263 -5.09167305 -0.03123726 0 0 Z " fill="#617CDD" transform="translate(270.08203125,25.90234375)"/>
<path d="M0 0 C1.98 0.66 3.96 1.32 6 2 C5.67 2.99 5.34 3.98 5 5 C5.66 5.33 6.32 5.66 7 6 C6.79375 6.721875 6.5875 7.44375 6.375 8.1875 C5.93137079 11.51471905 6.64005745 12.97790544 8 16 C8.12375 16.886875 8.2475 17.77375 8.375 18.6875 C8.58125 19.450625 8.7875 20.21375 9 21 C9.8971875 21.433125 9.8971875 21.433125 10.8125 21.875 C14.33516714 23.68665738 15.27153007 26.48132906 17 30 C17 30.99 17 31.98 17 33 C17.70125 32.95875 18.4025 32.9175 19.125 32.875 C22.38733531 33.01684067 24.92862782 33.93169663 28 35 C28.99 35 29.98 35 31 35 C31 35.99 31 36.98 31 38 C32.08007324 37.99476318 33.16014648 37.98952637 34.27294922 37.98413086 C38.27228978 37.96605892 42.27162672 37.95455993 46.27099609 37.94506836 C48.00342414 37.94003318 49.73584792 37.93320468 51.46826172 37.92456055 C53.95541433 37.91245935 56.44251087 37.90676362 58.9296875 37.90234375 C60.09538773 37.89460182 60.09538773 37.89460182 61.28463745 37.88670349 C66.77225659 37.88612829 66.77225659 37.88612829 69 39 C69.33 38.01 69.66 37.02 70 36 C70.5625 37.9375 70.5625 37.9375 71 40 C68.9336424 42.0663576 64.53354041 41.16410489 61.6875 41.16796875 C60.84461426 41.17129715 60.00172852 41.17462555 59.13330078 41.17805481 C57.34098863 41.18313157 55.54866699 41.18546291 53.75634766 41.18530273 C51.0392238 41.18746873 48.32251956 41.20555885 45.60546875 41.22460938 C43.86198055 41.22754741 42.11849042 41.22952946 40.375 41.23046875 C39.57151123 41.23765427 38.76802246 41.24483978 37.94018555 41.25224304 C28.3186931 41.21414071 20.35912269 39.45276015 13 33 C7.90251498 27.50958384 4.93437656 21.01714043 2.0625 14.1875 C1.75554199 13.45813232 1.44858398 12.72876465 1.13232422 11.97729492 C-0.36438036 8.22863223 -1.50881299 5.10964342 -1 1 C-0.67 0.67 -0.34 0.34 0 0 Z " fill="#1EE5DA" transform="translate(401,375)"/>
<path d="M0 0 C1.22589844 -0.0515625 2.45179688 -0.103125 3.71484375 -0.15625 C7.0625 0.5 7.0625 0.5 9.18359375 2.7890625 C11.94105899 7.76641543 14.02130101 13.12278872 16.1875 18.375 C16.66034424 19.50728027 17.13318848 20.63956055 17.62036133 21.80615234 C18.60761184 24.17233874 19.59202689 26.53970999 20.57373047 28.90820312 C22.04462923 32.45688508 23.52304524 36.00234009 25.00390625 39.546875 C27.36287076 45.1953896 29.71526782 50.84660073 32.0625 56.5 C31.0725 56.995 31.0725 56.995 30.0625 57.5 C29.65 57.005 29.2375 56.51 28.8125 56 C26.94047662 54.06613908 26.94047662 54.06613908 23.0625 54.5 C22.0625 51.5 22.0625 51.5 23.125 49.125 C24.32666024 45.76035133 23.521778 44.661769 22.0625 41.5 C22.0625 40.18 22.0625 38.86 22.0625 37.5 C21.464375 37.685625 20.86625 37.87125 20.25 38.0625 C18.0625 38.5 18.0625 38.5 15.0625 37.5 C15.00191406 36.42621094 14.94132812 35.35242187 14.87890625 34.24609375 C14.79442349 32.80988685 14.70977946 31.37368942 14.625 29.9375 C14.58568359 29.23302734 14.54636719 28.52855469 14.50585938 27.80273438 C14.23731721 23.3201459 13.75633803 18.93706503 13.0625 14.5 C10.7525 14.17 8.4425 13.84 6.0625 13.5 C6.35546875 11.48177083 6.6484375 9.46354167 6.94140625 7.4453125 C7.2309297 5.41859333 7.2309297 5.41859333 6.0625 3.5 C4.24924449 3.61351517 2.43686643 3.74112961 0.625 3.875 C-0.38433594 3.94460937 -1.39367187 4.01421875 -2.43359375 4.0859375 C-3.67302734 4.29089844 -3.67302734 4.29089844 -4.9375 4.5 C-5.2675 5.16 -5.5975 5.82 -5.9375 6.5 C-7.2575 5.18 -8.5775 3.86 -9.9375 2.5 C-6.31666926 0.08611284 -4.31388924 0.10863939 0 0 Z " fill="#5A80E9" transform="translate(297.9375,25.5)"/>
<path d="M0 0 C0.99 0 1.98 0 3 0 C19.49828477 37.70455286 19.49828477 37.70455286 26.5625 54.3125 C27.02052002 55.38290527 27.47854004 56.45331055 27.95043945 57.55615234 C28.3599585 58.52375488 28.76947754 59.49135742 29.19140625 60.48828125 C29.54404541 61.31884033 29.89668457 62.14939941 30.26000977 63.00512695 C31 65 31 65 31 67 C28.03 67.495 28.03 67.495 25 68 C25 67.34 25 66.68 25 66 C25.99 65.505 25.99 65.505 27 65 C26.69320313 64.44828125 26.38640625 63.8965625 26.0703125 63.328125 C24.90557059 60.79459879 24.37942044 58.48828238 23.875 55.75 C23.70742188 54.85796875 23.53984375 53.9659375 23.3671875 53.046875 C23.24601562 52.37140625 23.12484375 51.6959375 23 51 C21.35 51 19.7 51 18 51 C16.13216954 45.51324804 15.7641604 40.77807024 16 35 C13.525 35.495 13.525 35.495 11 36 C9.375 34 9.375 34 8 31 C8.51604168 29.0325911 9.03841082 27.06532581 9.6484375 25.125 C10.18198577 21.89999712 9.07839698 19.65934657 7.7265625 16.76171875 C7 15 7 15 7 12 C5.02 12 3.04 12 1 12 C0.67 8.04 0.34 4.08 0 0 Z " fill="#5293E2" transform="translate(328,84)"/>
<path d="M0 0 C1.31456052 3.94368155 0.34909552 5.1147495 -1.32421875 8.87109375 C-1.85297607 10.07258057 -2.3817334 11.27406738 -2.92651367 12.51196289 C-3.51344838 13.8205025 -4.10044528 15.12901422 -4.6875 16.4375 C-5.28013627 17.7774347 -5.87167664 19.1178546 -6.4621582 20.45874023 C-7.68762197 23.24056718 -8.91696179 26.02063452 -10.1484375 28.79980469 C-12.78197278 34.75767818 -15.34637605 40.74504816 -17.90615845 46.7348938 C-18.67451772 48.53213364 -19.44502865 50.32845312 -20.21557617 52.12475586 C-22.19012898 56.73295031 -24.15428781 61.33840036 -26 66 C-26.33 66 -26.66 66 -27 66 C-26.62633025 59.52305759 -24.71099892 54.59914687 -21.9609375 48.734375 C-20.93524786 45.81574594 -21.01728135 44.83548756 -22 42 C-21.814375 41.319375 -21.62875 40.63875 -21.4375 39.9375 C-21.293125 39.298125 -21.14875 38.65875 -21 38 C-21.66 37.01 -22.32 36.02 -23 35 C-20.64561267 33.57055055 -19.51967567 32.91338739 -16.75 33.375 C-16.1725 33.58125 -15.595 33.7875 -15 34 C-15 32.68 -15 31.36 -15 30 C-14.67 29.67 -14.34 29.34 -14 29 C-14.33 28.01 -14.66 27.02 -15 26 C-14.365555 22.06644102 -13.21117369 18.88085359 -9.9375 16.5 C-7.63356145 14.71630564 -7.53736169 13.77636874 -7 11 C-6.34 10.34 -5.68 9.68 -5 9 C-4.60235737 7.01178687 -4.26224651 5.01055661 -4 3 C-2.68 2.67 -1.36 2.34 0 2 C0 1.34 0 0.68 0 0 Z " fill="#36D1D6" transform="translate(183,311)"/>
<path d="M0 0 C0.5625 1.9375 0.5625 1.9375 1 4 C0.67 4.33 0.34 4.66 0 5 C-0.23075082 6.34747084 -0.41153063 7.70377565 -0.5625 9.0625 C-0.706875 10.361875 -0.85125 11.66125 -1 13 C-1.66 13 -2.32 13 -3 13 C-3 13.99 -3 14.98 -3 16 C77.19 16.495 77.19 16.495 159 17 C159 17.33 159 17.66 159 18 C104.55 18 50.1 18 -6 18 C-5.22364406 12.56550842 -4.68542447 9.73126622 -2.4375 5.0625 C-1.98246094 4.10472656 -1.52742187 3.14695312 -1.05859375 2.16015625 C-0.70925781 1.44730469 -0.35992187 0.73445313 0 0 Z " fill="#56CBD7" transform="translate(218,308)"/>
<path d="M0 0 C0.99 0 1.98 0 3 0 C3.66 2.97 4.32 5.94 5 9 C3.68 9 2.36 9 1 9 C1 8.01 1 7.02 1 6 C0.34 6 -0.32 6 -1 6 C-2.85776765 9.13498292 -3.20140476 11.37471432 -3 15 C-2.34 15 -1.68 15 -1 15 C-2.05154639 21.30927835 -2.05154639 21.30927835 -4 24 C-5.010625 24.33 -6.02125 24.66 -7.0625 25 C-8.031875 25.33 -9.00125 25.66 -10 26 C-11.14241508 28.36643124 -10.99989249 30.00225765 -10.875 32.625 C-10.91625 33.40875 -10.9575 34.1925 -11 35 C-11.99 35.66 -12.98 36.32 -14 37 C-14.34342449 38.33076989 -14.67619874 39.66431979 -15 41 C-16.4375 42.75 -16.4375 42.75 -18 44 C-18.66 44 -19.32 44 -20 44 C-17.55690076 36.20990422 -14.55700438 28.67031495 -11.43920898 21.13134766 C-10.84995023 19.69881385 -10.26736208 18.26351967 -9.69116211 16.82568359 C-8.85169387 14.73163326 -7.99276012 12.64658867 -7.12890625 10.5625 C-6.87460342 9.91780762 -6.6203006 9.27311523 -6.35829163 8.60888672 C-4.49499304 4.20519671 -4.49499304 4.20519671 -1.80444336 3.08984375 C-1.20897705 3.06019531 -0.61351074 3.03054687 0 3 C0 2.01 0 1.02 0 0 Z " fill="#5587E6" transform="translate(235,63)"/>
<path d="M0 0 C2.06310451 3.09465676 3.42381742 6.09060685 4.8984375 9.50390625 C5.17466949 10.14182602 5.45090149 10.77974579 5.73550415 11.43699646 C6.32018103 12.788857 6.90342968 14.14133602 7.48535156 15.49438477 C8.36196243 17.53219229 9.24306928 19.56800569 10.125 21.60351562 C11.76529401 25.39593343 13.38530865 29.19660854 15 33 C15.4424707 34.03108887 15.88494141 35.06217773 16.34082031 36.12451172 C16.9030127 37.46860107 16.9030127 37.46860107 17.4765625 38.83984375 C17.79963379 39.60546631 18.12270508 40.37108887 18.45556641 41.15991211 C19 43 19 43 18 45 C17.34 44.01 16.68 43.02 16 42 C14.03247172 40.93753473 12.03412421 39.92862192 10 39 C10.20625 37.9275 10.4125 36.855 10.625 35.75 C11.00511142 31.94888583 10.78573389 31.1250343 9 28 C9.33 27.01 9.66 26.02 10 25 C6.71303767 24.20046862 5.28976808 23.90341064 2 25 C1.67 23.68 1.34 22.36 1 21 C1.66 21 2.32 21 3 21 C3.23767107 15.89007193 2.48514388 12.42312948 -0.1875 8.0625 C-1.33345407 5.15353966 -0.67949972 2.98979875 0 0 Z " fill="#51A0D3" transform="translate(359,151)"/>
<path d="M0 0 C0.66 0.33 1.32 0.66 2 1 C1.67 1.66 1.34 2.32 1 3 C0.01 3 -0.98 3 -2 3 C-2 4.32 -2 5.64 -2 7 C-2.66 7 -3.32 7 -4 7 C-4.02578125 7.90363281 -4.0515625 8.80726563 -4.078125 9.73828125 C-4.13484375 10.91777344 -4.1915625 12.09726563 -4.25 13.3125 C-4.31960937 15.07013672 -4.31960937 15.07013672 -4.390625 16.86328125 C-5 20 -5 20 -6.859375 21.91796875 C-9 23 -9 23 -12 23 C-12.33 24.32 -12.66 25.64 -13 27 C-13.66 27 -14.32 27 -15 27 C-15.66 28.32 -16.32 29.64 -17 31 C-17.66 31 -18.32 31 -19 31 C-15.36574904 18.60079083 -10.67083121 7.79140057 0 0 Z " fill="#3DAFDF" transform="translate(83,202)"/>
<path d="M0 0 C1 3 1 3 0.0625 5.1875 C-0.4634375 6.0846875 -0.4634375 6.0846875 -1 7 C0.21993652 6.98428955 1.43987305 6.9685791 2.69677734 6.95239258 C7.26278977 6.89771371 11.82877379 6.86351293 16.39501953 6.83520508 C18.36381919 6.82020439 20.33258593 6.79979717 22.30126953 6.77368164 C25.14624198 6.73691185 27.99076913 6.72018613 30.8359375 6.70703125 C31.70302338 6.69154739 32.57010925 6.67606354 33.46347046 6.66011047 C42.19224197 6.65775618 50.08672558 8.27356063 56.5625 14.4375 C57.38878906 15.19933594 58.21507812 15.96117187 59.06640625 16.74609375 C60.95692965 18.94979476 61.6319 20.16498422 62 23 C61.34 22.67 60.68 22.34 60 22 C60 21.34 60 20.68 60 20 C58.35 19.67 56.7 19.34 55 19 C55 18.34 55 17.68 55 17 C54.34 16.67 53.68 16.34 53 16 C53 15.01 53 14.02 53 13 C51.35 13 49.7 13 48 13 C48 12.34 48 11.68 48 11 C45.13824429 10.1820017 42.61867404 9.88147654 39.64624023 9.90234375 C38.7953331 9.90564697 37.94442596 9.9089502 37.06773376 9.91235352 C36.15721756 9.92065186 35.24670135 9.9289502 34.30859375 9.9375 C33.36693863 9.94128662 32.42528351 9.94507324 31.45509338 9.94897461 C28.44918232 9.96118357 25.44336746 9.9798151 22.4375 10 C18.47786718 10.02654291 14.51828185 10.04656095 10.55859375 10.0625 C9.1897831 10.07494751 9.1897831 10.07494751 7.7933197 10.08764648 C6.94556473 10.09094971 6.09780975 10.09425293 5.22436523 10.09765625 C4.47920151 10.10289307 3.73403778 10.10812988 2.96629333 10.11352539 C1 10 1 10 -2 9 C-2.33 7.02 -2.66 5.04 -3 3 C-2.01 2.67 -1.02 2.34 0 2 C0 1.34 0 0.68 0 0 Z " fill="#5EA4C5" transform="translate(234,192)"/>
<path d="M0 0 C0.91422729 -0.00137466 1.82845459 -0.00274933 2.77038574 -0.00416565 C4.26363373 0.00122726 4.26363373 0.00122726 5.78704834 0.00672913 C7.36800293 0.00651009 7.36800293 0.00651009 8.980896 0.00628662 C12.46545467 0.00698342 15.94995993 0.01476499 19.43450928 0.02259827 C21.85017874 0.02446327 24.26584858 0.02588679 26.68151855 0.02688599 C33.04043624 0.03070466 39.39933109 0.04052943 45.75823975 0.05158997 C52.24668061 0.06181803 58.73512517 0.0663866 65.22357178 0.07142639 C77.95535235 0.08215225 90.6871171 0.09902877 103.41888428 0.12025452 C103.41888428 0.45025452 103.41888428 0.78025452 103.41888428 1.12025452 C102.12262619 1.13056198 100.8263681 1.14086945 99.49082947 1.15148926 C87.29203135 1.2491231 75.09328538 1.35184763 62.89457226 1.45959377 C56.62266502 1.51482628 50.35075311 1.56824687 44.07879639 1.61756897 C38.02930381 1.66520759 31.97986876 1.71755033 25.93044472 1.77319527 C23.6191278 1.79362108 21.30779511 1.81233378 18.99645042 1.82932854 C15.76635392 1.85336742 12.53636649 1.88342288 9.30633545 1.91493225 C8.34464447 1.92068771 7.38295349 1.92644318 6.39212036 1.93237305 C5.07332634 1.94705627 5.07332634 1.94705627 3.72789001 1.96203613 C2.96372363 1.96848868 2.19955725 1.97494123 1.41223431 1.98158932 C-0.7909534 2.05151686 -0.7909534 2.05151686 -3.58111572 3.12025452 C-5.91411398 3.15979686 -8.24819761 3.16427184 -10.58111572 3.12025452 C-10.91111572 4.11025452 -11.24111572 5.10025452 -11.58111572 6.12025452 C-12.46799072 6.40900452 -13.35486572 6.69775452 -14.26861572 6.99525452 C-18.33397414 8.37594228 -20.41860275 10.25893326 -23.58111572 13.12025452 C-21.83900089 8.41654447 -18.10301172 5.4438414 -13.77252197 3.17103577 C-9.11401652 1.11728605 -5.06930132 -0.00589454 0 0 Z " fill="#5BB3C5" transform="translate(251.58111572265625,274.87974548339844)"/>
<path d="M0 0 C2 2 2 2 2.1875 4.8125 C2.02065367 7.64888758 1.64955894 10.23937449 1 13 C-0.65 13.33 -2.3 13.66 -4 14 C-4.350625 15.2375 -4.70125 16.475 -5.0625 17.75 C-5.35833984 18.79414063 -5.35833984 18.79414063 -5.66015625 19.859375 C-6.15354018 22.00966896 -6.15354018 22.00966896 -5.41796875 24.09375 C-5.21107422 25.03734375 -5.21107422 25.03734375 -5 26 C-7.25 28.75 -7.25 28.75 -10 31 C-10.99 31 -11.98 31 -13 31 C-12.46916643 24.7900898 -10.43648705 19.73809236 -7.9375 14.0625 C-7.37192383 12.75055664 -7.37192383 12.75055664 -6.79492188 11.41210938 C-5.87077032 9.27135324 -4.9390249 7.13426353 -4 5 C-3.34 5 -2.68 5 -2 5 C-2 4.34 -2 3.68 -2 3 C-1.34 3 -0.68 3 0 3 C0 2.01 0 1.02 0 0 Z " fill="#40A8E3" transform="translate(189,170)"/>
<path d="M0 0 C6.02033448 1.35457526 10.06806536 4.36620371 14 9 C21.59022134 21.48297271 21.59022134 21.48297271 21 28 C20.67 27.34 20.34 26.68 20 26 C18.35 26.33 16.7 26.66 15 27 C14.44778056 24.31779129 13.94131922 21.64058024 13.5 18.9375 C13.09864185 16.57952088 12.62114558 14.30711214 12 12 C9.69 11.67 7.38 11.34 5 11 C5.20625 10.443125 5.4125 9.88625 5.625 9.3125 C6.10695211 6.340462 5.26565028 4.68020059 4 2 C2.35 2 0.7 2 -1 2 C-0.67 1.34 -0.34 0.68 0 0 Z " fill="#40C0D3" transform="translate(467,277)"/>
<path d="M0 0 C4.875 0.875 4.875 0.875 6 2 C8.05396726 1.59070014 8.05396726 1.59070014 10 1 C7.63517299 8.61103027 4.5641079 15.79148517 1.3125 23.0625 C0.80138672 24.21427734 0.29027344 25.36605469 -0.23632812 26.55273438 C-1.48721306 29.37014812 -2.74184323 32.18582798 -4 35 C-4.33 35 -4.66 35 -5 35 C-5.33 33.35 -5.66 31.7 -6 30 C-6.66 30 -7.32 30 -8 30 C-7.505 28.515 -7.505 28.515 -7 27 C-6.01 27.33 -5.02 27.66 -4 28 C-4 26.68 -4 25.36 -4 24 C-3.01 24 -2.02 24 -1 24 C-0.96261719 23.33613281 -0.92523438 22.67226562 -0.88671875 21.98828125 C-0.49690328 16.75252439 0.10961631 13.46695661 3 9 C2.9049261 6.9519572 2.9049261 6.9519572 2 5 C1.649375 4.0925 1.29875 3.185 0.9375 2.25 C0.628125 1.5075 0.31875 0.765 0 0 Z " fill="#5097DF" transform="translate(256,120)"/>
<path d="M0 0 C2.97 0.495 2.97 0.495 6 1 C6.33 1.99 6.66 2.98 7 4 C6.01 4 5.02 4 4 4 C4.474375 4.99 4.94875 5.98 5.4375 7 C7.16947842 11.00875757 7.57371651 14.6661179 8 19 C8.30169066 20.34084736 8.61517681 21.6806062 9 23 C12.04913228 24.01111093 12.04913228 24.01111093 15 23 C15 24.65 15 26.3 15 28 C14.34 28.33 13.68 28.66 13 29 C13.33 29.99 13.66 30.98 14 32 C13.34 32.66 12.68 33.32 12 34 C9.05473869 28.22224638 6.31657459 22.39290362 3.75 16.4375 C3.38648438 15.62603516 3.02296875 14.81457031 2.6484375 13.97851562 C0.53200224 9.0494493 -0.43209404 5.36516767 0 0 Z " fill="#5B95D8" transform="translate(281,97)"/>
<path d="M0 0 C1.65 0 3.3 0 5 0 C5 0.99 5 1.98 5 3 C5.66 3 6.32 3 7 3 C7.33 2.01 7.66 1.02 8 0 C8.66 0.66 9.32 1.32 10 2 C12.87436296 2.29372523 12.87436296 2.29372523 16.28564453 2.22705078 C16.92967224 2.22734283 17.57369995 2.22763489 18.23724365 2.22793579 C20.36923627 2.22654074 22.50088082 2.21097174 24.6328125 2.1953125 C26.10968841 2.19158298 27.58656678 2.18873572 29.06344604 2.18673706 C32.95317398 2.17909574 36.84275288 2.15944308 40.73242188 2.1373291 C44.70050032 2.11688135 48.66860282 2.10773764 52.63671875 2.09765625 C60.42454716 2.07619756 68.21225271 2.04205572 76 2 C76 2.66 76 3.32 76 4 C50.26 4 24.52 4 -2 4 C-1.34 3.67 -0.68 3.34 0 3 C0 2.01 0 1.02 0 0 Z " fill="#35D2E4" transform="translate(215,321)"/>
<path d="M0 0 C2.85077774 3.3925376 4.47578569 7.11063442 6.13671875 11.171875 C6.42102249 11.8542926 6.70532623 12.53671021 6.99824524 13.23980713 C7.89999389 15.40770408 8.79384104 17.57875753 9.6875 19.75 C10.29961051 21.22547612 10.91223519 22.70073905 11.52539062 24.17578125 C13.02289204 27.78141272 14.51331831 31.38989463 16 35 C15.01 35.495 15.01 35.495 14 36 C13.5875 35.505 13.175 35.01 12.75 34.5 C10.87797662 32.56613908 10.87797662 32.56613908 7 33 C6 30 6 30 7.0625 27.625 C8.26416024 24.26035133 7.459278 23.161769 6 20 C6 18.68 6 17.36 6 16 C4.68 16.33 3.36 16.66 2 17 C1.20046862 13.71303767 0.90341064 12.28976808 2 9 C1.35561283 7.32459336 0.68753301 5.65816784 0 4 C0 2.68 0 1.36 0 0 Z " fill="#5E81DB" transform="translate(314,47)"/>
<path d="M0 0 C2.35953094 2.35953094 2.49141413 3.77895617 3 7 C3.61752136 6.99555878 4.23504272 6.99111755 4.87127686 6.98654175 C11.29502042 6.94231492 17.71872077 6.91213623 24.14257812 6.89013672 C26.54038245 6.88007555 28.9381745 6.86642521 31.3359375 6.84912109 C34.78128082 6.8248782 38.22646199 6.81351802 41.671875 6.8046875 C42.74491882 6.79436493 43.81796265 6.78404236 44.92352295 6.77340698 C45.92425842 6.77325592 46.9249939 6.77310486 47.95605469 6.77294922 C48.83541687 6.768508 49.71477905 6.76406677 50.62078857 6.75949097 C53.17234387 7.01742185 54.80136552 7.71350053 57 9 C53.92008127 9.9045366 51.208103 10.10960489 48.00366211 10.06933594 C47.01260971 10.05892273 46.02155731 10.04850952 45.00047302 10.03778076 C43.40502403 10.01134491 43.40502403 10.01134491 41.77734375 9.984375 C40.68031631 9.96787903 39.58328888 9.95138306 38.45301819 9.93438721 C36.1355392 9.89691826 33.81810816 9.8563758 31.50073242 9.81298828 C27.9478102 9.75018226 24.39503072 9.70879638 20.84179688 9.66796875 C18.59112251 9.62892635 16.34046989 9.58860515 14.08984375 9.546875 C12.49135841 9.53258453 12.49135841 9.53258453 10.86058044 9.51800537 C9.87268021 9.49498352 8.88477997 9.47196167 7.86694336 9.44824219 C6.5626664 9.42706329 6.5626664 9.42706329 5.23204041 9.40545654 C2.51950543 8.91271678 1.60351945 8.21923834 0 6 C-0.1875 2.8125 -0.1875 2.8125 0 0 Z " fill="#50BAD0" transform="translate(409,268)"/>
<path d="M0 0 C0.66 0 1.32 0 2 0 C1.26130359 5.48745903 0.60937954 10.10741336 -2 15 C-2.33 15.66 -2.66 16.32 -3 17 C-3.66 17 -4.32 17 -5 17 C-5.061875 18.216875 -5.12375 19.43375 -5.1875 20.6875 C-5.74017922 25.26112076 -7.6756857 26.83398638 -11 30 C-12.25655584 32.62644809 -13.10413598 35.21810645 -14 38 C-14.66 38 -15.32 38 -16 38 C-13.59098411 30.34014609 -10.58378925 23.00906386 -7.4375 15.625 C-6.94314453 14.45066406 -6.44878906 13.27632813 -5.93945312 12.06640625 C-2.25643745 3.38465618 -2.25643745 3.38465618 0 0 Z " fill="#3AD2D5" transform="translate(117,335)"/>
<path d="M0 0 C0.66 0.33 1.32 0.66 2 1 C1.67 1.99 1.34 2.98 1 4 C1.66 4.33 2.32 4.66 3 5 C2.71890887 6.64767247 2.42481474 8.29313145 2.125 9.9375 C1.96257812 10.85402344 1.80015625 11.77054688 1.6328125 12.71484375 C1.42398438 13.46894531 1.21515625 14.22304687 1 15 C0.01 15.495 0.01 15.495 -1 16 C-0.01 16.99 0.98 17.98 2 19 C-0.89234315 19.82638376 -2.88742431 20 -6 20 C-6.66 21.32 -7.32 22.64 -8 24 C-8.90202956 21.51129794 -9.08462506 20.27193663 -8.28735352 17.70996094 C-7.90506592 16.89301758 -7.52277832 16.07607422 -7.12890625 15.234375 C-6.71962891 14.34492187 -6.31035156 13.45546875 -5.88867188 12.5390625 C-5.45103516 11.61867188 -5.01339844 10.69828125 -4.5625 9.75 C-4.12873047 8.81414062 -3.69496094 7.87828125 -3.24804688 6.9140625 C-2.17566685 4.6043209 -1.09273597 2.30016329 0 0 Z " fill="#5B90D6" transform="translate(214,108)"/>
<path d="M0 0 C2 0 2 0 3.5 1.4375 C3.995 1.953125 4.49 2.46875 5 3 C5.66 3.33 6.32 3.66 7 4 C7 7.96 7 11.92 7 16 C7.66 16 8.32 16 9 16 C9 16.99 9 17.98 9 19 C9.99 19.33 10.98 19.66 12 20 C12.33 19.34 12.66 18.68 13 18 C13.66 18.33 14.32 18.66 15 19 C15 21.66666667 15 24.33333333 15 27 C14.34 27 13.68 27 13 27 C13.350625 27.9075 13.70125 28.815 14.0625 29.75 C15.00170571 33.00591313 14.95514676 33.92749994 14 37 C12.53141711 33.67109176 11.07704906 30.33614952 9.625 27 C9.00625 25.59814453 9.00625 25.59814453 8.375 24.16796875 C6.04996721 18.80539311 4.28802126 13.6970171 3 8 C2.49148156 6.48844061 1.95814421 4.98436707 1.375 3.5 C0.694375 1.7675 0.694375 1.7675 0 0 Z " fill="#30D6D8" transform="translate(385,342)"/>
<path d="M0 0 C0.66 1.32 1.32 2.64 2 4 C-0.0663576 6.0663576 -4.46645959 5.16410489 -7.3125 5.16796875 C-8.15538574 5.17129715 -8.99827148 5.17462555 -9.86669922 5.17805481 C-11.65901137 5.18313157 -13.45133301 5.18546291 -15.24365234 5.18530273 C-17.9607762 5.18746873 -20.67748044 5.20555885 -23.39453125 5.22460938 C-25.13801945 5.22754741 -26.88150958 5.22952946 -28.625 5.23046875 C-29.42848877 5.23765427 -30.23197754 5.24483978 -31.05981445 5.25224304 C-44.80217846 5.19782154 -44.80217846 5.19782154 -49 1 C-47.55560547 1.10828125 -47.55560547 1.10828125 -46.08203125 1.21875 C-34.5728686 2.0009261 -23.11153517 2.07200805 -11.57739258 1.96289062 C-10.36591553 1.95451172 -9.15443848 1.94613281 -7.90625 1.9375 C-6.81634766 1.92589844 -5.72644531 1.91429687 -4.60351562 1.90234375 C-2 2 -2 2 0 3 C0 2.01 0 1.02 0 0 Z " fill="#40EDE1" transform="translate(470,411)"/>
<path d="M0 0 C0.33 0.66 0.66 1.32 1 2 C10.66373036 3.56656217 20.5515559 3.07706733 30.3125 3 C33.72525735 2.97333039 37.13795867 2.95340222 40.55078125 2.9375 C41.32480789 2.92920166 42.09883453 2.92090332 42.89631653 2.91235352 C46.72990552 2.89496221 50.27458098 3.06276446 54 4 C54 4.33 54 4.66 54 5 C33.87 5 13.74 5 -7 5 C-7 5.66 -7 6.32 -7 7 C-7.99 6.67 -8.98 6.34 -10 6 C-9.4375 4.0625 -9.4375 4.0625 -8 2 C-4.4375 1.3125 -4.4375 1.3125 -1 1 C-0.67 0.67 -0.34 0.34 0 0 Z " fill="#3AD5E7" transform="translate(442,320)"/>
<path d="M0 0 C2.31 0.33 4.62 0.66 7 1 C6.47731534 3.76276177 5.89130413 6.3260876 5 9 C5.66 9.33 6.32 9.66 7 10 C7.28875 10.99 7.5775 11.98 7.875 13 C8.24625 13.99 8.6175 14.98 9 16 C11.03243548 16.96877057 11.03243548 16.96877057 13 17 C13.33 19.31 13.66 21.62 14 24 C13.34 24 12.68 24 12 24 C12.66 25.98 13.32 27.96 14 30 C13.34 30 12.68 30 12 30 C10.56144132 26.81297677 9.12434693 23.62529528 7.6875 20.4375 C7.28337891 19.54224609 6.87925781 18.64699219 6.46289062 17.72460938 C5.30375001 15.15188265 4.15172571 12.57605226 3 10 C2.68240723 9.30406738 2.36481445 8.60813477 2.03759766 7.89111328 C0.77173423 5.06245551 0 3.13996702 0 0 Z " fill="#4FA5DF" transform="translate(313,176)"/>
<path d="M0 0 C0.66 0 1.32 0 2 0 C2.29534499 4.85647905 1.40700477 8.1241639 -0.51953125 12.5703125 C-0.77876877 13.17382538 -1.03800629 13.77733826 -1.30509949 14.3991394 C-1.85230175 15.66692875 -2.40474782 16.93246639 -2.9621582 18.19580078 C-3.81092294 20.12142208 -4.64201807 22.05394618 -5.47070312 23.98828125 C-9.9185629 34.24426659 -9.9185629 34.24426659 -13 38 C-13.33 36.02 -13.66 34.04 -14 32 C-13.01 32.33 -12.02 32.66 -11 33 C-10.67 30.69 -10.34 28.38 -10 26 C-9.34 26 -8.68 26 -8 26 C-8 23.36 -8 20.72 -8 18 C-7.01 18 -6.02 18 -5 18 C-5.33 17.34 -5.66 16.68 -6 16 C-5.91348369 14.45386986 -5.75997364 12.91090613 -5.5625 11.375 C-5.46066406 10.55773437 -5.35882813 9.74046875 -5.25390625 8.8984375 C-5.17011719 8.27195313 -5.08632812 7.64546875 -5 7 C-3.35 6.34 -1.7 5.68 0 5 C0 3.35 0 1.7 0 0 Z " fill="#4E9EDC" transform="translate(248,154)"/>
<path d="M0 0 C0.33 0.66 0.66 1.32 1 2 C1.99 2.33 2.98 2.66 4 3 C5.18261719 4.99365234 5.18261719 4.99365234 6.296875 7.5859375 C6.89822266 8.98199219 6.89822266 8.98199219 7.51171875 10.40625 C7.92035156 11.3859375 8.32898438 12.365625 8.75 13.375 C9.17410156 14.34695313 9.59820312 15.31890625 10.03515625 16.3203125 C13.12833872 23.61498385 13.12833872 23.61498385 12 27 C7.38 27 2.76 27 -2 27 C-2 26.67 -2 26.34 -2 26 C3.445 25.01 3.445 25.01 9 24 C9 23.34 9 22.68 9 22 C8.01 22 7.02 22 6 22 C6.309375 20.948125 6.309375 20.948125 6.625 19.875 C7.07850357 16.39813928 6.27540277 14.22601877 5 11 C4.01 11 3.02 11 2 11 C1 5.25 1 5.25 1 3 C0.01 3.33 -0.98 3.66 -2 4 C-2 3.34 -2 2.68 -2 2 C-1.34 2 -0.68 2 0 2 C0 1.34 0 0.68 0 0 Z " fill="#29E1D6" transform="translate(458,387)"/>
<path d="M0 0 C0.66 0.33 1.32 0.66 2 1 C1.26312774 4.50472578 -0.05313697 7.59097524 -1.50390625 10.859375 C-1.99697266 11.97441406 -2.49003906 13.08945313 -2.99804688 14.23828125 C-3.51431641 15.39714844 -4.03058594 16.55601563 -4.5625 17.75 C-5.08263672 18.92433594 -5.60277344 20.09867188 -6.13867188 21.30859375 C-7.42292903 24.20700899 -8.71014084 27.10407449 -10 30 C-10.99 29.34 -11.98 28.68 -13 28 C-12.67 27.34 -12.34 26.68 -12 26 C-12.19207031 25.38640625 -12.38414062 24.7728125 -12.58203125 24.140625 C-13.14975495 21.23303072 -12.28912019 20.18626733 -10.6875 17.75 C-10.23761719 17.04359375 -9.78773438 16.3371875 -9.32421875 15.609375 C-8.88722656 15.07828125 -8.45023437 14.5471875 -8 14 C-7.34 14 -6.68 14 -6 14 C-5.731875 12.741875 -5.46375 11.48375 -5.1875 10.1875 C-4.38051976 6.91346587 -3.64567136 5.1855546 -1 3 C-0.67 2.01 -0.34 1.02 0 0 Z " fill="#5192E5" transform="translate(277,90)"/>
<path d="M0 0 C0.33 0 0.66 0 1 0 C1.18393122 5.42597111 1.09708587 7.75728532 -1 13 C7.58 12.67 16.16 12.34 25 12 C25 12.66 25 13.32 25 14 C22.23382437 15.38308781 19.98982 15.11210196 16.8984375 15.09765625 C15.68671875 15.09443359 14.475 15.09121094 13.2265625 15.08789062 C11.95554687 15.07951172 10.68453125 15.07113281 9.375 15.0625 C8.09625 15.05798828 6.8175 15.05347656 5.5 15.04882812 C2.33328708 15.03701203 -0.83333356 15.02053815 -4 15 C-5.32830615 11.01508155 -4.23204404 9.59951452 -2.5625 5.8125 C-2.08941406 4.72582031 -1.61632812 3.63914062 -1.12890625 2.51953125 C-0.75636719 1.68808594 -0.38382812 0.85664063 0 0 Z " fill="#3BE3D7" transform="translate(88,401)"/>
<path d="M0 0 C0.33 0 0.66 0 1 0 C1.6875 3.3125 1.6875 3.3125 2 7 C0.75 8.5625 0.75 8.5625 -1 10 C-3.17401398 13.54283759 -4 15.55081426 -4 19.75 C-4 20.8225 -4 21.895 -4 23 C-4.99 23.66 -5.98 24.32 -7 25 C-7.34342449 26.33076989 -7.67619874 27.66431979 -8 29 C-9.4375 30.75 -9.4375 30.75 -11 32 C-11.66 32 -12.32 32 -13 32 C-10.72578162 24.75423446 -7.88273904 17.87948128 -4.8125 10.9375 C-4.34908203 9.88111328 -3.88566406 8.82472656 -3.40820312 7.73632812 C-2.2756523 5.15598036 -1.13952397 2.57727399 0 0 Z " fill="#5C8AD9" transform="translate(228,75)"/>
<path d="M0 0 C0.56589844 0.23460937 1.13179687 0.46921875 1.71484375 0.7109375 C1.38484375 2.0309375 1.05484375 3.3509375 0.71484375 4.7109375 C1.70484375 5.0409375 2.69484375 5.3709375 3.71484375 5.7109375 C0.13839527 6.9489389 -2.62210391 6.46019821 -6.28515625 5.7109375 C-5.95515625 8.6809375 -5.62515625 11.6509375 -5.28515625 14.7109375 C-5.94515625 14.7109375 -6.60515625 14.7109375 -7.28515625 14.7109375 C-7.61515625 14.0509375 -7.94515625 13.3909375 -8.28515625 12.7109375 C-9.21328125 13.7009375 -9.21328125 13.7009375 -10.16015625 14.7109375 C-12.28515625 16.7109375 -12.28515625 16.7109375 -14.28515625 16.7109375 C-12.85745576 9.62166609 -9.9144195 5.79465225 -4.5390625 1.046875 C-2.28515625 -0.2890625 -2.28515625 -0.2890625 0 0 Z " fill="#39C5D6" transform="translate(237.28515625,281.2890625)"/>
<path d="M0 0 C0.99 0 1.98 0 3 0 C4.28571429 8.42857143 4.28571429 8.42857143 3 13 C3.99 13.33 4.98 13.66 6 14 C6 14.33 6 14.66 6 15 C2.7 15 -0.6 15 -4 15 C-3.71848084 12.87363187 -3.42446737 10.74891472 -3.125 8.625 C-2.96257812 7.44164062 -2.80015625 6.25828125 -2.6328125 5.0390625 C-2 2 -2 2 0 0 Z " fill="#19E7D9" transform="translate(91,399)"/>
<path d="M0 0 C2.22825644 2.22825644 2.69239369 3.65761628 3.625 6.625 C4.01558594 7.85089844 4.01558594 7.85089844 4.4140625 9.1015625 C4.60742188 9.72804688 4.80078125 10.35453125 5 11 C4 12 4 12 1.52598572 12.12025452 C0.42678299 12.11803391 -0.67241974 12.11581329 -1.80493164 12.11352539 C-3.66674828 12.11341209 -3.66674828 12.11341209 -5.56617737 12.11329651 C-6.9308374 12.10818911 -8.29549702 12.1029731 -9.66015625 12.09765625 C-11.04878183 12.095792 -12.43740807 12.09436813 -13.82603455 12.09336853 C-17.48721115 12.08954387 -21.1483483 12.07971403 -24.80950928 12.06866455 C-28.54292263 12.05844932 -32.27634234 12.05387067 -36.00976562 12.04882812 C-43.33986177 12.03809171 -50.66992536 12.02101591 -58 12 C-58 11.67 -58 11.34 -58 11 C-38.2 10.67 -18.4 10.34 2 10 C1.34 8.02 0.68 6.04 0 4 C0 2.68 0 1.36 0 0 Z " fill="#54C7D5" transform="translate(493,314)"/>
<path d="M0 0 C0.99 0 1.98 0 3 0 C4.86988327 4.09718532 6.71817039 8.20375596 8.5625 12.3125 C9.09552734 13.47974609 9.62855469 14.64699219 10.17773438 15.84960938 C10.67724609 16.96787109 11.17675781 18.08613281 11.69140625 19.23828125 C12.15748291 20.26993408 12.62355957 21.30158691 13.10375977 22.36450195 C14 25 14 25 13 28 C7 16.26213592 7 16.26213592 7 12 C5.02 12 3.04 12 1 12 C0.67 8.04 0.34 4.08 0 0 Z " fill="#5D89D8" transform="translate(328,84)"/>
<path d="M0 0 C0.99 0 1.98 0 3 0 C3.33 1.32 3.66 2.64 4 4 C4.61875 4.0825 5.2375 4.165 5.875 4.25 C8 5 8 5 9.25 7.0625 C9.4975 7.701875 9.745 8.34125 10 9 C9.34 9 8.68 9 8 9 C8.144375 9.59167969 8.28875 10.18335938 8.4375 10.79296875 C9.40822694 14.92529941 10.27593702 18.7229762 10 23 C6.74050304 19.24907119 5.14193882 14.92759097 3.3125 10.375 C2.99216797 9.59898437 2.67183594 8.82296875 2.34179688 8.0234375 C0 2.2713053 0 2.2713053 0 0 Z " fill="#499BE4" transform="translate(294,132)"/>
<path d="M0 0 C2.42746041 2.42746041 3.26471252 4.64806369 4.6015625 7.8125 C5.09140625 8.97007812 5.58125 10.12765625 6.0859375 11.3203125 C6.59382813 12.53460938 7.10171875 13.74890625 7.625 15 C8.140625 16.21429688 8.65625 17.42859375 9.1875 18.6796875 C13 27.73689649 13 27.73689649 13 30 C11.02 30.33 9.04 30.66 7 31 C7 30.34 7 29.68 7 29 C7.66 28.67 8.32 28.34 9 28 C8.71125 27.505 8.4225 27.01 8.125 26.5 C7 24 7 24 6.1875 20.375 C5.38572079 16.88106783 4.06369389 14.0335711 2.375 10.875 C0.37167548 7.06809592 -0.57721775 4.38685489 0 0 Z " fill="#5E93CB" transform="translate(346,121)"/>
<path d="M0 0 C0.99 0 1.98 0 3 0 C6.42857143 8.42857143 6.42857143 8.42857143 6 13 C3.0625 12.625 3.0625 12.625 0 12 C-1.12256131 9.75487738 -1.13413762 8.48543351 -1.125 6 C-1.12886719 4.948125 -1.12886719 4.948125 -1.1328125 3.875 C-1 2 -1 2 0 0 Z " fill="#24D8DC" transform="translate(441,347)"/>
<path d="M0 0 C1.2065625 0.0309375 1.2065625 0.0309375 2.4375 0.0625 C2.46448189 1.68740954 2.48388757 3.31244633 2.5 4.9375 C2.51160156 5.84242188 2.52320313 6.74734375 2.53515625 7.6796875 C2.4375 10.0625 2.4375 10.0625 1.4375 12.0625 C0.4475 12.0625 -0.5425 12.0625 -1.5625 12.0625 C-1.5625 12.7225 -1.5625 13.3825 -1.5625 14.0625 C-4.0375 13.0725 -4.0375 13.0725 -6.5625 12.0625 C-5.5725 11.4025 -4.5825 10.7425 -3.5625 10.0625 C-3.23637625 7.88721637 -3.23637625 7.88721637 -3.4375 5.5 C-3.50844648 4.02194833 -3.55670845 2.54224207 -3.5625 1.0625 C-2.5625 0.0625 -2.5625 0.0625 0 0 Z " fill="#32C1DD" transform="translate(357.5625,265.9375)"/>
<path d="M0 0 C1 3 1 3 0 7 C18.81 7.495 18.81 7.495 38 8 C38 8.33 38 8.66 38 9 C32.78575406 9.16763742 27.57135652 9.32819469 22.35668945 9.48217773 C20.58254115 9.53556608 18.80845009 9.59089298 17.03442383 9.64819336 C14.48531435 9.73019269 11.93608072 9.80523144 9.38671875 9.87890625 C8.19594978 9.91945885 8.19594978 9.91945885 6.98112488 9.96083069 C3.69363284 10.05004432 1.14650219 10.04883406 -2 9 C-2.33 7.02 -2.66 5.04 -3 3 C-2.01 2.67 -1.02 2.34 0 2 C0 1.34 0 0.68 0 0 Z " fill="#50ACDC" transform="translate(234,192)"/>
<path d="M0 0 C1.65 0 3.3 0 5 0 C4.01 0.495 4.01 0.495 3 1 C3.75150023 4.27773504 3.75150023 4.27773504 7 6 C6.67 8.97 6.34 11.94 6 15 C5.34 15 4.68 15 4 15 C-0.59225513 5.77448747 -0.59225513 5.77448747 0 0 Z " fill="#4BA0E0" transform="translate(305,154)"/>
<path d="M0 0 C1.98 0.66 3.96 1.32 6 2 C5.67 2.99 5.34 3.98 5 5 C5.66 5.33 6.32 5.66 7 6 C6.79375 6.721875 6.5875 7.44375 6.375 8.1875 C5.94047789 11.44641585 6.58319331 13.08304504 8 16 C7.01 16 6.02 16 5 16 C4 15 4 15 3.9375 12.4375 C3.958125 11.633125 3.97875 10.82875 4 10 C3.34 10 2.68 10 2 10 C-0.4375 4.15 -0.4375 4.15 -1 1 C-0.67 0.67 -0.34 0.34 0 0 Z " fill="#1CE1D8" transform="translate(401,375)"/>
<path d="M0 0 C0.33 0.66 0.66 1.32 1 2 C0.01257813 1.96519531 -0.97484375 1.93039063 -1.9921875 1.89453125 C-3.91417969 1.85392578 -3.91417969 1.85392578 -5.875 1.8125 C-7.15117187 1.77769531 -8.42734375 1.74289063 -9.7421875 1.70703125 C-10.81726563 1.80371094 -11.89234375 1.90039062 -13 2 C-13.99 3.485 -13.99 3.485 -15 5 C-15.66 4.34 -16.32 3.68 -17 3 C-17.886875 3.309375 -18.77375 3.61875 -19.6875 3.9375 C-22.46709155 4.8290671 -25.13136375 5.49377007 -28 6 C-28.33 5.34 -28.66 4.68 -29 4 C-19.82724666 -1.28199678 -10.21048611 -0.37738963 0 0 Z " fill="#5D6AE6" transform="translate(286,26)"/>
<path d="M0 0 C2.79822679 3.31520125 4.18818992 6.69781061 5.6875 10.75 C6.12449219 11.92046875 6.56148438 13.0909375 7.01171875 14.296875 C7.33785156 15.18890625 7.66398437 16.0809375 8 17 C7.01 16.67 6.02 16.34 5 16 C4.67 15.01 4.34 14.02 4 13 C3.01 12.67 2.02 12.34 1 12 C1 11.34 1 10.68 1 10 C0.34 10 -0.32 10 -1 10 C-1.33 8.02 -1.66 6.04 -2 4 C-1.34 4 -0.68 4 0 4 C0 2.68 0 1.36 0 0 Z " fill="#4AA6D5" transform="translate(378,196)"/>
<path d="M0 0 C1.11841676 3.35525029 0.91538821 3.97089854 -0.3125 7.125 C-0.70888672 8.18074219 -0.70888672 8.18074219 -1.11328125 9.2578125 C-2 11 -2 11 -4 12 C-4.72159424 13.64363134 -5.39351421 15.31050386 -6 17 C-6.33 17 -6.66 17 -7 17 C-7.51078171 10.99831493 -6.28641245 6.12196723 -3 1 C-2.01 0.67 -1.02 0.34 0 0 Z " fill="#38C9D7" transform="translate(127,316)"/>
<path d="M0 0 C1.22444576 3.67333729 0.65749402 4.4316916 -0.87109375 7.88671875 C-1.28037109 8.82451172 -1.68964844 9.76230469 -2.11132812 10.72851562 C-2.7677832 12.19321289 -2.7677832 12.19321289 -3.4375 13.6875 C-4.0881543 15.16959961 -4.0881543 15.16959961 -4.75195312 16.68164062 C-5.82609533 19.12501905 -6.90904518 21.56409304 -8 24 C-8.33 24 -8.66 24 -9 24 C-8.62707354 17.53594144 -6.72027009 12.52558341 -4.05859375 6.63671875 C-2.81371222 4.00954675 -2.81371222 4.00954675 -3 1 C-2.01 0.67 -1.02 0.34 0 0 Z " fill="#3CD3D3" transform="translate(165,353)"/>
<path d="M0 0 C1.17189558 3.51568674 0.83725505 3.9991852 -0.65234375 7.23046875 C-1.01650391 8.03291016 -1.38066406 8.83535156 -1.75585938 9.66210938 C-2.34077148 10.91217773 -2.34077148 10.91217773 -2.9375 12.1875 C-3.32357422 13.03248047 -3.70964844 13.87746094 -4.10742188 14.74804688 C-5.06300701 16.83617735 -6.02743783 18.91973604 -7 21 C-7.33 21 -7.66 21 -8 21 C-7.88601335 19.37419034 -7.75844341 17.74932843 -7.625 16.125 C-7.55539063 15.22007812 -7.48578125 14.31515625 -7.4140625 13.3828125 C-7 11 -7 11 -5 9 C-4.60235737 7.01178687 -4.26224651 5.01055661 -4 3 C-2.68 2.67 -1.36 2.34 0 2 C0 1.34 0 0.68 0 0 Z " fill="#3EC9D5" transform="translate(183,311)"/>
<path d="M0 0 C0.33 0.66 0.66 1.32 1 2 C1.99 2 2.98 2 4 2 C5.60355101 5.50776784 6.22036864 8.14354879 6 12 C5.67 11.34 5.34 10.68 5 10 C3.35 10.33 1.7 10.66 0 11 C-0.77675511 7.60169639 -1.19382275 4.48880949 -1 1 C-0.67 0.67 -0.34 0.34 0 0 Z " fill="#34C4D9" transform="translate(482,293)"/>
<path d="M0 0 C0.99 0.33 1.98 0.66 3 1 C2.36437072 4.10829701 1.29253416 6.45943884 -0.3125 9.1875 C-2.87083629 13.66458852 -4.99183306 18.25444349 -7 23 C-7.66 23 -8.32 23 -9 23 C-6.54234965 15.08090444 -3.33181427 7.58014704 0 0 Z " fill="#4EC1D0" transform="translate(136,289)"/>
<path d="M0 0 C2 2 2 2 2.1875 4.8125 C2.02065367 7.64888758 1.64955894 10.23937449 1 13 C-0.32 13.33 -1.64 13.66 -3 14 C-3.66 13.01 -4.32 12.02 -5 11 C-4.5390625 8.95703125 -4.5390625 8.95703125 -3.625 6.8125 C-3.32851562 6.09707031 -3.03203125 5.38164062 -2.7265625 4.64453125 C-2.48679688 4.10183594 -2.24703125 3.55914062 -2 3 C-1.34 3 -0.68 3 0 3 C0 2.01 0 1.02 0 0 Z " fill="#44A4E4" transform="translate(189,170)"/>
<path d="M0 0 C0.66 0 1.32 0 2 0 C1.33673121 5.1692853 -0.91924657 9.62251365 -3.0625 14.3125 C-3.62807617 15.56643555 -3.62807617 15.56643555 -4.20507812 16.84570312 C-5.13211807 18.89927262 -6.06386878 20.95056287 -7 23 C-8.0625 21.125 -8.0625 21.125 -9 19 C-8.67 18.34 -8.34 17.68 -8 17 C-7.34 17.33 -6.68 17.66 -6 18 C-5.67 15.69 -5.34 13.38 -5 11 C-4.34 11 -3.68 11 -3 11 C-3 8.36 -3 5.72 -3 3 C-2.01 3 -1.02 3 0 3 C0 2.01 0 1.02 0 0 Z " fill="#56A2D5" transform="translate(243,169)"/>
<path d="M0 0 C1.27230469 0.01804687 2.54460937 0.03609375 3.85546875 0.0546875 C5.31919922 0.08949219 5.31919922 0.08949219 6.8125 0.125 C4.30734216 2.63015784 2.20181835 3.17599086 -1.1875 4.125 C-2.5075 4.125 -3.8275 4.125 -5.1875 4.125 C-5.5175 4.785 -5.8475 5.445 -6.1875 6.125 C-7.5075 4.805 -8.8275 3.485 -10.1875 2.125 C-6.4507157 -0.36618953 -4.44298181 -0.0815226 0 0 Z " fill="#5060E8" transform="translate(298.1875,25.875)"/>
<path d="M0 0 C2.97 0.495 2.97 0.495 6 1 C6.33 1.99 6.66 2.98 7 4 C6.01 4 5.02 4 4 4 C4.515625 5.0725 5.03125 6.145 5.5625 7.25 C6.63240282 9.71477612 7.03572782 10.72132303 6.6875 13.4375 C6.460625 13.953125 6.23375 14.46875 6 15 C5.67 15 5.34 15 5 15 C4.67 12.69 4.34 10.38 4 8 C3.34 8 2.68 8 2 8 C0.74335022 5.09399739 0 3.20395416 0 0 Z " fill="#528DE5" transform="translate(281,97)"/>
<path d="M0 0 C3 1 3 1 4.25 3.375 C5 6 5 6 4 9 C-0.62 9 -5.24 9 -10 9 C-10 8.67 -10 8.34 -10 8 C-4.555 7.01 -4.555 7.01 1 6 C1 5.34 1 4.68 1 4 C0.01 4 -0.98 4 -2 4 C-1 1 -1 1 0 0 Z " fill="#20E5D5" transform="translate(466,405)"/>
<path d="M0 0 C-3.6441774 2.4294516 -5.71241272 2.16179575 -10 2 C-10.33 2.99 -10.66 3.98 -11 5 C-11.886875 5.28875 -12.77375 5.5775 -13.6875 5.875 C-17.75285841 7.25568776 -19.83748703 9.13867874 -23 12 C-20.99474081 6.58580019 -16.48749968 3.79884242 -11.625 1.1875 C-7.40918639 -0.19354239 -4.40084374 -0.23162335 0 0 Z " fill="#4ABACF" transform="translate(251,276)"/>
<path d="M0 0 C0.556875 0.268125 1.11375 0.53625 1.6875 0.8125 C1.3575 2.1325 1.0275 3.4525 0.6875 4.8125 C1.6775 5.1425 2.6675 5.4725 3.6875 5.8125 C0.11105152 7.0505014 -2.64944766 6.56176071 -6.3125 5.8125 C-6.6425 6.4725 -6.9725 7.1325 -7.3125 7.8125 C-7.3125 4.8125 -7.3125 4.8125 -5.0625 2.0625 C-2.3125 -0.1875 -2.3125 -0.1875 0 0 Z " fill="#31C3DF" transform="translate(237.3125,281.1875)"/>
<path d="M0 0 C1.85546875 0.22265625 1.85546875 0.22265625 4 1 C5.30078125 2.99609375 5.30078125 2.99609375 6.3125 5.4375 C6.65925781 6.24058594 7.00601562 7.04367188 7.36328125 7.87109375 C8 10 8 10 7 12 C5.68 11.01 4.36 10.02 3 9 C3 9.99 3 10.98 3 12 C2.34 12 1.68 12 1 12 C1.20625 10.7625 1.4125 9.525 1.625 8.25 C2.06107124 4.88090165 2.03403639 2.87158079 0 0 Z " fill="#6178D9" transform="translate(303,27)"/>
<path d="M0 0 C-0.42683239 1.58624235 -0.86696158 3.1689098 -1.3125 4.75 C-1.55613281 5.63171875 -1.79976562 6.5134375 -2.05078125 7.421875 C-3.02125331 10.05772505 -4.21005644 11.85407326 -6 14 C-5.91621094 13.32453125 -5.83242187 12.6490625 -5.74609375 11.953125 C-5.64425781 11.06109375 -5.54242188 10.1690625 -5.4375 9.25 C-5.33308594 8.36828125 -5.22867188 7.4865625 -5.12109375 6.578125 C-5.00543324 4.11567549 -5.26361305 2.33461936 -6 0 C-2.25 -1.125 -2.25 -1.125 0 0 Z " fill="#39C7D4" transform="translate(190,297)"/>
<path d="M0 0 C1.65 0 3.3 0 5 0 C5.33 2.31 5.66 4.62 6 7 C5.34 7 4.68 7 4 7 C4.66 8.98 5.32 10.96 6 13 C5.34 13 4.68 13 4 13 C1.97944157 8.60748167 0.59104765 4.84659077 0 0 Z " fill="#45ABDC" transform="translate(321,193)"/>
<path d="M0 0 C0.33 0 0.66 0 1 0 C1.27667984 8.30039526 1.27667984 8.30039526 -1 12 C-1 12.66 -1 13.32 -1 14 C-2.65 14.66 -4.3 15.32 -6 16 C-4.25192871 10.53262809 -2.34205919 5.24175152 0 0 Z " fill="#3BDDD5" transform="translate(95,385)"/>
<path d="M0 0 C0.66 0 1.32 0 2 0 C2 2.97 2 5.94 2 9 C1.01 9.33 0.02 9.66 -1 10 C-1 10.66 -1 11.32 -1 12 C-2.32 12.33 -3.64 12.66 -5 13 C-4.39254603 8.14036821 -2.27241033 4.2594482 0 0 Z " fill="#2BC9DB" transform="translate(134,299)"/>
<path d="M0 0 C1.32 0.66 2.64 1.32 4 2 C3.67 4.31 3.34 6.62 3 9 C1.35 9.33 -0.3 9.66 -2 10 C-1.79375 9.236875 -1.5875 8.47375 -1.375 7.6875 C-0.66608797 4.78114056 -0.66608797 4.78114056 -3 2 C-2.01 1.34 -1.02 0.68 0 0 Z " fill="#22D6DD" transform="translate(163,344)"/>
<path d="M0 0 C0.33 0 0.66 0 1 0 C1.22786458 2.01822917 1.45572917 4.03645833 1.68359375 6.0546875 C1.91292961 8.07404316 1.91292961 8.07404316 3 10 C2.34 10.66 1.68 11.32 1 12 C-2 11 -2 11 -4 9 C-3.6400005 5.5200048 -1.91339969 2.87009953 0 0 Z " fill="#2FC4E0" transform="translate(141,283)"/>
<path d="M0 0 C0.66 0 1.32 0 2 0 C5 5.75 5 5.75 5 8 C4.401875 7.814375 3.80375 7.62875 3.1875 7.4375 C0.83591238 6.77906313 0.83591238 6.77906313 -2 8 C-2.33 6.68 -2.66 5.36 -3 4 C-2.34 4 -1.68 4 -1 4 C-0.67 2.68 -0.34 1.36 0 0 Z " fill="#42A2E5" transform="translate(363,168)"/>
<path d="M0 0 C0.66 0.33 1.32 0.66 2 1 C1.24470474 4.86252257 -0.39484772 8.20180367 -2.0625 11.75 C-2.88427734 13.50570312 -2.88427734 13.50570312 -3.72265625 15.296875 C-4.14417969 16.18890625 -4.56570313 17.0809375 -5 18 C-6.3760227 13.60655608 -5.57037244 10.24817515 -4 6 C-2.4375 4.1875 -2.4375 4.1875 -1 3 C-0.67 2.01 -0.34 1.02 0 0 Z " fill="#5F8DDA" transform="translate(277,90)"/>
<path d="M0 0 C4.49733877 -0.21415899 7.77852707 0.49903185 12 2 C12.99 2 13.98 2 15 2 C15 2.99 15 3.98 15 5 C10.45194365 5.17835515 7.1205746 4.99785435 3 3 C3 2.34 3 1.68 3 1 C2.01 0.67 1.02 0.34 0 0 Z " fill="#1DE7DA" transform="translate(417,408)"/>
<path d="M0 0 C1.485 0.99 1.485 0.99 3 2 C3 3.32 3 4.64 3 6 C3.66 6 4.32 6 5 6 C5.28875 6.94875 5.5775 7.8975 5.875 8.875 C6.76825109 12.05211578 6.76825109 12.05211578 9 14 C9 15.32 9 16.64 9 18 C8.34 18 7.68 18 7 18 C5.82887054 15.37690901 4.66294036 12.75171858 3.5 10.125 C3.16613281 9.37863281 2.83226562 8.63226563 2.48828125 7.86328125 C2.17246094 7.14785156 1.85664063 6.43242187 1.53125 5.6953125 C1.23798828 5.03547363 0.94472656 4.37563477 0.64257812 3.69580078 C0 2 0 2 0 0 Z " fill="#46D7D7" transform="translate(400,379)"/>
<path d="M0 0 C2.45925493 2.45925493 3.34371127 4.79646927 4.6875 8 C5.14511719 9.0725 5.60273438 10.145 6.07421875 11.25 C6.37972656 12.1575 6.68523437 13.065 7 14 C6.67 14.66 6.34 15.32 6 16 C3 12.375 3 12.375 3 9 C2.01 9 1.02 9 0 9 C-0.33 8.01 -0.66 7.02 -1 6 C-0.67 5.34 -0.34 4.68 0 4 C0 2.68 0 1.36 0 0 Z " fill="#4DAECF" transform="translate(393,231)"/>
<path d="M0 0 C6.35945776 1.24086981 9.18350306 5.14469324 13 10 C12.67 10.66 12.34 11.32 12 12 C11.67 11.01 11.34 10.02 11 9 C9.35 8.67 7.7 8.34 6 8 C6 7.34 6 6.68 6 6 C5.34 5.67 4.68 5.34 4 5 C4 4.01 4 3.02 4 2 C2.35 2 0.7 2 -1 2 C-0.67 1.34 -0.34 0.68 0 0 Z " fill="#4FA8D6" transform="translate(283,203)"/>
<path d="M0 0 C3.875 1.75 3.875 1.75 5 4 C4.71758117 6.3400417 4.38749213 8.67504723 4 11 C3.34 11 2.68 11 2 11 C2 9.68 2 8.36 2 7 C1.34 7 0.68 7 0 7 C0 4.69 0 2.38 0 0 Z " fill="#24DBDC" transform="translate(152,368)"/>
<path d="M0 0 C0.33 1.98 0.66 3.96 1 6 C0.01 6.33 -0.98 6.66 -2 7 C-2.33 7.66 -2.66 8.32 -3 9 C-4.32 8.67 -5.64 8.34 -7 8 C-3.34782609 0 -3.34782609 0 0 0 Z " fill="#26D3DB" transform="translate(175,327)"/>
<path d="M0 0 C0.5625 1.9375 0.5625 1.9375 1 4 C0.67 4.33 0.34 4.66 0 5 C-0.23075082 6.34747084 -0.41153063 7.70377565 -0.5625 9.0625 C-0.706875 10.361875 -0.85125 11.66125 -1 13 C-1.66 13 -2.32 13 -3 13 C-3 13.99 -3 14.98 -3 16 C-3.66 16 -4.32 16 -5 16 C-4.49228528 10.03435204 -2.61407872 5.36190101 0 0 Z " fill="#40C4D3" transform="translate(218,308)"/>
<path d="M0 0 C3.42931954 3.7559214 4.56429083 8.23466745 6 13 C4.35 12.67 2.7 12.34 1 12 C1.66 11.67 2.32 11.34 3 11 C3 10.01 3 9.02 3 8 C1.68 7.67 0.36 7.34 -1 7 C-0.67 4.69 -0.34 2.38 0 0 Z " fill="#48ABD8" transform="translate(386,215)"/>
<path d="M0 0 C0.66 0 1.32 0 2 0 C2.99 2.97 3.98 5.94 5 9 C3.02 9.33 1.04 9.66 -1 10 C-1 9.34 -1 8.68 -1 8 C-0.34 7.67 0.32 7.34 1 7 C0.649375 6.401875 0.29875 5.80375 -0.0625 5.1875 C-1 3 -1 3 0 0 Z " fill="#5197DB" transform="translate(354,142)"/>
<path d="M0 0 C2.45925493 2.45925493 3.34371127 4.79646927 4.6875 8 C5.14511719 9.0725 5.60273438 10.145 6.07421875 11.25 C6.37972656 12.1575 6.68523437 13.065 7 14 C6.67 14.66 6.34 15.32 6 16 C5.67 15.01 5.34 14.02 5 13 C4.34 13 3.68 13 3 13 C-0.42857143 4.57142857 -0.42857143 4.57142857 0 0 Z " fill="#3FD0CF" transform="translate(447,357)"/>
<path d="M0 0 C0.99 0.33 1.98 0.66 3 1 C3.73519522 2.97583715 4.39072482 4.98177598 5 7 C5.53625 8.010625 6.0725 9.02125 6.625 10.0625 C8.01861875 13.03977643 8.28507743 14.76912247 8 18 C5.39667844 14.83936913 3.85961424 11.6568348 2.3125 7.875 C1.87550781 6.82054687 1.43851562 5.76609375 0.98828125 4.6796875 C0 2 0 2 0 0 Z " fill="#53BBD3" transform="translate(347,256)"/>
<path d="M0 0 C0.99 0.33 1.98 0.66 3 1 C2.34 2.98 1.68 4.96 1 7 C-0.65 7.33 -2.3 7.66 -4 8 C-4.33 6.35 -4.66 4.7 -5 3 C-4.34 2.67 -3.68 2.34 -3 2 C-2.34 2.33 -1.68 2.66 -1 3 C-0.67 2.01 -0.34 1.02 0 0 Z " fill="#1EE0DA" transform="translate(149,382)"/>
<path d="M0 0 C0.33 0.66 0.66 1.32 1 2 C2.32 2 3.64 2 5 2 C5 2.66 5 3.32 5 4 C0.38 4 -4.24 4 -9 4 C-8.67 3.34 -8.34 2.68 -8 2 C-5.67284 1.62599214 -3.33882138 1.29235267 -1 1 C-0.67 0.67 -0.34 0.34 0 0 Z " fill="#2CCED9" transform="translate(442,320)"/>
<path d="M0 0 C4.455 0.99 4.455 0.99 9 2 C8.67 3.32 8.34 4.64 8 6 C6.35 5.67 4.7 5.34 3 5 C3 4.34 3 3.68 3 3 C1.68 2.67 0.36 2.34 -1 2 C-0.67 1.34 -0.34 0.68 0 0 Z " fill="#2ACDDD" transform="translate(375,320)"/>
<path d="M0 0 C0.62345694 2.31569722 1.08354704 4.56095868 1.4375 6.9375 C1.88733206 9.99888314 1.88733206 9.99888314 3.125 12.6875 C4 15 4 15 3 18 C1.9955866 15.7101766 0.99632388 13.4183401 0 11.125 C-0.28617187 10.47402344 -0.57234375 9.82304687 -0.8671875 9.15234375 C-3 4.2265625 -3 4.2265625 -3 2 C-2.01 1.34 -1.02 0.68 0 0 Z " fill="#52B1D4" transform="translate(339,228)"/>
<path d="M0 0 C0.33 0 0.66 0 1 0 C1 1.98 1 3.96 1 6 C0.34 6 -0.32 6 -1 6 C-1.12375 6.9075 -1.2475 7.815 -1.375 8.75 C-1.92109677 11.58970323 -2.57263803 13.52590591 -4 16 C-4.66 16 -5.32 16 -6 16 C-4.25192871 10.53262809 -2.34205919 5.24175152 0 0 Z " fill="#52AACC" transform="translate(70,217)"/>
<path d="M0 0 C0.99 0 1.98 0 3 0 C3 0.99 3 1.98 3 3 C3.66 3 4.32 3 5 3 C4.33333333 4.33333333 3.66666667 5.66666667 3 7 C2.64830932 8.32860925 2.31229724 9.66158328 2 11 C-1.07692308 5.70769231 -1.07692308 5.70769231 -0.6875 2.125 C-0.460625 1.42375 -0.23375 0.7225 0 0 Z " fill="#4AAEDC" transform="translate(330,211)"/>
<path d="M0 0 C0 3 0 3 -1.4375 4.875 C-3.2010399 7.27341427 -3.59478146 9.08242648 -4 12 C-4.99 11.67 -5.98 11.34 -7 11 C-7.33 12.32 -7.66 13.64 -8 15 C-8.33 14.34 -8.66 13.68 -9 13 C-7.17846829 7.64185802 -4.17858365 3.71429658 0 0 Z " fill="#667AD1" transform="translate(250,32)"/>
<path d="M0 0 C1.9375 0.8125 1.9375 0.8125 4 2 C4.33 2.99 4.66 3.98 5 5 C7.01508358 5.73323796 7.01508358 5.73323796 9 6 C9 6.66 9 7.32 9 8 C10.45833358 9.62514468 10.45833358 9.62514468 12 11 C8.39519566 11 7.09104628 9.82220187 4.4296875 7.51171875 C2.32641731 5.28776912 1.17256147 2.80111907 0 0 Z " fill="#42DED7" transform="translate(409,400)"/>
<path d="M0 0 C0.99 0 1.98 0 3 0 C3.33 2.64 3.66 5.28 4 8 C2.68 8.33 1.36 8.66 0 9 C0.33 7.68 0.66 6.36 1 5 C0.34 5 -0.32 5 -1 5 C-0.67 3.35 -0.34 1.7 0 0 Z " fill="#33C6DA" transform="translate(489,309)"/>
<path d="M0 0 C0.33 0 0.66 0 1 0 C1.31057116 5.43499526 -0.54365046 9.26275446 -3 14 C-3.66 14 -4.32 14 -5 14 C-5.33 14.66 -5.66 15.32 -6 16 C-5.37183502 12.05050296 -4.1354471 8.80107972 -2.4375 5.1875 C-1.98246094 4.21167969 -1.52742187 3.23585937 -1.05859375 2.23046875 C-0.70925781 1.49441406 -0.35992187 0.75835937 0 0 Z " fill="#569BD3" transform="translate(192,159)"/>
<path d="M0 0 C0.99 0.33 1.98 0.66 3 1 C2.34 3.97 1.68 6.94 1 10 C-0.32 9.67 -1.64 9.34 -3 9 C-2.690625 8.443125 -2.38125 7.88625 -2.0625 7.3125 C-0.94238179 4.87459567 -0.43962636 2.63775814 0 0 Z " fill="#4E91E5" transform="translate(214,113)"/>
<path d="M0 0 C0.99 0 1.98 0 3 0 C3.99 2.97 4.98 5.94 6 9 C5.01 8.01 4.02 7.02 3 6 C0.40084462 4.80972016 0.40084462 4.80972016 -2 4 C-1.34 2.68 -0.68 1.36 0 0 Z " fill="#48A5D8" transform="translate(372,187)"/>
<path d="M0 0 C1.66171502 2.49257253 2.9387679 4.79516513 4.1875 7.5 C4.55230469 8.2734375 4.91710937 9.046875 5.29296875 9.84375 C6 12 6 12 5 15 C4.18162558 13.58671871 3.37053781 12.16921654 2.5625 10.75 C2.11003906 9.96109375 1.65757812 9.1721875 1.19140625 8.359375 C0.09450789 6.18715661 -0.63596258 4.39957057 -1 2 C-0.67 1.34 -0.34 0.68 0 0 Z " fill="#579BCF" transform="translate(359,151)"/>
<path d="M0 0 C0.33 0 0.66 0 1 0 C1 3.63 1 7.26 1 11 C-0.65 11.33 -2.3 11.66 -4 12 C-2.66666667 8 -1.33333333 4 0 0 Z " fill="#47B4D5" transform="translate(150,256)"/>
<path d="M0 0 C4.19141135 2.23541939 6.21299034 3.72162585 7.875 8.25 C8.431875 10.10625 8.431875 10.10625 9 12 C8.01 12 7.02 12 6 12 C5.67 9.69 5.34 7.38 5 5 C3.35 5 1.7 5 0 5 C-0.5625 3.0625 -0.5625 3.0625 -1 1 C-0.67 0.67 -0.34 0.34 0 0 Z " fill="#5871E2" transform="translate(306,35)"/>
<path d="M0 0 C1.65 1.32 3.3 2.64 5 4 C2.10765685 4.82638376 0.11257569 5 -3 5 C-3.66 6.32 -4.32 7.64 -5 9 C-4.125 4.25 -4.125 4.25 -3 2 C-2.01 2 -1.02 2 0 2 C0 1.34 0 0.68 0 0 Z " fill="#4F95E5" transform="translate(211,123)"/>
<path d="M0 0 C0.66 0.33 1.32 0.66 2 1 C1.67 1.66 1.34 2.32 1 3 C0.01 3 -0.98 3 -2 3 C-2 3.99 -2 4.98 -2 6 C-2.99 6.33 -3.98 6.66 -5 7 C-6.37195574 8.29355827 -7.71182656 9.62298702 -9 11 C-9 8 -9 8 -7.03125 5.95703125 C-6.1959375 5.24933594 -5.360625 4.54164063 -4.5 3.8125 C-3.6646875 3.09707031 -2.829375 2.38164062 -1.96875 1.64453125 C-1.3190625 1.10183594 -0.669375 0.55914062 0 0 Z " fill="#56A5CD" transform="translate(83,202)"/>
<path d="M0 0 C0.33 0 0.66 0 1 0 C1 1.98 1 3.96 1 6 C0.13375 6.0928125 0.13375 6.0928125 -0.75 6.1875 C-3.88690987 7.32027301 -5.09167504 9.34197595 -7 12 C-7.36407767 7.50970874 -7.36407767 7.50970874 -5.75 5.25 C-3.83141429 3.87958164 -2.30908032 3.3981173 0 3 C0 2.01 0 1.02 0 0 Z " fill="#23DFD9" transform="translate(103,377)"/>
<path d="M0 0 C1.875 0.1875 1.875 0.1875 4 1 C5.25 3.5625 5.25 3.5625 6 6 C4.35 6.33 2.7 6.66 1 7 C0 2.25 0 2.25 0 0 Z " fill="#26D3DC" transform="translate(433,336)"/>
<path d="M0 0 C1.35800315 4.07400945 0.56946011 7.05580705 -1 11 C-3.125 13 -3.125 13 -5 14 C-3.45730076 9.27934033 -1.92205381 4.58335908 0 0 Z " fill="#54A0CF" transform="translate(185,175)"/>
<path d="M0 0 C0.33 0.66 0.66 1.32 1 2 C0.22265625 4.1640625 0.22265625 4.1640625 -0.9375 6.625 C-1.31777344 7.44226563 -1.69804687 8.25953125 -2.08984375 9.1015625 C-2.39019531 9.72804688 -2.69054687 10.35453125 -3 11 C-3.99 10.34 -4.98 9.68 -6 9 C-5.67 8.01 -5.34 7.02 -5 6 C-4.34 6 -3.68 6 -3 6 C-3 4.68 -3 3.36 -3 2 C-2.01 1.34 -1.02 0.68 0 0 Z " fill="#5892D3" transform="translate(270,109)"/>
<path d="M0 0 C1.5625 1.125 1.5625 1.125 3 3 C2.6875 6.1875 2.6875 6.1875 2 9 C0.68 9 -0.64 9 -2 9 C-1.505 7.6078125 -1.505 7.6078125 -1 6.1875 C0.14967004 3.07970709 0.14967004 3.07970709 0 0 Z " fill="#40A7E4" transform="translate(232,185)"/>
<path d="M0 0 C1.98 0.99 1.98 0.99 4 2 C4 2.99 4 3.98 4 5 C3.34 5 2.68 5 2 5 C1.67 6.32 1.34 7.64 1 9 C0 8 0 8 -0.09765625 6.15234375 C-0.06510417 4.1015625 -0.03255208 2.05078125 0 0 Z " fill="#17E8DA" transform="translate(136,400)"/>
<path d="M0 0 C0.99 0 1.98 0 3 0 C5.27678571 6.96428571 5.27678571 6.96428571 4 11 C3.32880451 9.5437455 2.66318193 8.08492133 2 6.625 C1.62875 5.81289062 1.2575 5.00078125 0.875 4.1640625 C0 2 0 2 0 0 Z " fill="#5E98D0" transform="translate(294,132)"/>
<path d="M0 0 C1.79068573 2.6860286 2.66055791 4.6626589 3.625 7.6875 C3.88539063 8.49574219 4.14578125 9.30398438 4.4140625 10.13671875 C4.60742188 10.75160156 4.80078125 11.36648438 5 12 C1.92056849 9.94704566 1.20706879 9.34265205 0 6 C-0.125 2.75 -0.125 2.75 0 0 Z " fill="#3EDACA" transform="translate(463,394)"/>
<path d="M0 0 C0.33 0 0.66 0 1 0 C1 2.31 1 4.62 1 7 C0.01 7.33 -0.98 7.66 -2 8 C-2.33 8.99 -2.66 9.98 -3 11 C-3.33 10.34 -3.66 9.68 -4 9 C-3.22265625 6.8359375 -3.22265625 6.8359375 -2.0625 4.375 C-1.68222656 3.55773437 -1.30195312 2.74046875 -0.91015625 1.8984375 C-0.60980469 1.27195312 -0.30945313 0.64546875 0 0 Z " fill="#48D5D5" transform="translate(100,373)"/>
<path d="M0 0 C1.5625 1.25 1.5625 1.25 3 3 C2.6875 5.1875 2.6875 5.1875 2 7 C0.35 6.01 -1.3 5.02 -3 4 C-2.67 3.01 -2.34 2.02 -2 1 C-1.34 0.67 -0.68 0.34 0 0 Z " fill="#24DCDA" transform="translate(451,370)"/>
<path d="M0 0 C0.99 0.33 1.98 0.66 3 1 C2.40072174 4.35595828 1.15377564 6.37801226 -1 9 C-2.0326802 6.21176345 -2.04509293 5.1322726 -1.0625 2.25 C-0.711875 1.5075 -0.36125 0.765 0 0 Z " fill="#3DBED4" transform="translate(136,289)"/>
<path d="M0 0 C0.33 0.66 0.66 1.32 1 2 C0.06553465 4.03144641 -0.93224776 6.03533587 -2 8 C-2.66 8 -3.32 8 -4 8 C-3.50168276 4.31245243 -2.89932357 2.39509338 0 0 Z " fill="#3FBFD5" transform="translate(194,286)"/>
<path d="M0 0 C0.33 0 0.66 0 1 0 C0.5317879 4.77576339 -0.24331998 8.04476345 -3 12 C-3.66 11.67 -4.32 11.34 -5 11 C-3.35 7.37 -1.7 3.74 0 0 Z " fill="#5C93D1" transform="translate(204,131)"/>
<path d="M0 0 C2.15377564 2.62198774 3.40072174 4.64404172 4 8 C2.02 8 0.04 8 -2 8 C-2 7.34 -2 6.68 -2 6 C-1.01 6 -0.02 6 1 6 C0.67 4.02 0.34 2.04 0 0 Z " fill="#6183D4" transform="translate(323,68)"/>
<path d="M0 0 C0.33 0.66 0.66 1.32 1 2 C0.34 2 -0.32 2 -1 2 C-1.66 3.32 -2.32 4.64 -3 6 C-3.66 6 -4.32 6 -5 6 C-5.33 6.66 -5.66 7.32 -6 8 C-5.125 3.25 -5.125 3.25 -4 1 C-1.9375 0.375 -1.9375 0.375 0 0 Z " fill="#5E85DA" transform="translate(235,67)"/>
<path d="M0 0 C2.31 0.33 4.62 0.66 7 1 C7 1.66 7 2.32 7 3 C5.88625 3.309375 4.7725 3.61875 3.625 3.9375 C0.2054845 4.82326483 0.2054845 4.82326483 -2 6 C-1.34 4.02 -0.68 2.04 0 0 Z " fill="#5D7BEB" transform="translate(243,43)"/>
<path d="M0 0 C0.33 0.99 0.66 1.98 1 3 C-0.65 2.67 -2.3 2.34 -4 2 C-4 2.66 -4 3.32 -4 4 C-5.32 4.33 -6.64 4.66 -8 5 C-7 2 -7 2 -5.125 0.8125 C-3 0 -3 0 0 0 Z " fill="#19E8D8" transform="translate(134,408)"/>
<path d="M0 0 C2.97 0.99 5.94 1.98 9 3 C4.82091936 5.08954032 4.19589427 5.16552619 0 4 C0 2.68 0 1.36 0 0 Z " fill="#2DC1DC" transform="translate(408,274)"/>
<path d="M0 0 C2.50357861 0.8345262 4.66785852 1.79371992 7 3 C7 3.66 7 4.32 7 5 C5.02 5 3.04 5 1 5 C0.67 3.35 0.34 1.7 0 0 Z " fill="#41ACE1" transform="translate(280,202)"/>
<path d="M0 0 C0.99 0.33 1.98 0.66 3 1 C5.28070175 7.15789474 5.28070175 7.15789474 4 11 C3.32880451 9.5437455 2.66318193 8.08492133 2 6.625 C1.62875 5.81289062 1.2575 5.00078125 0.875 4.1640625 C0 2 0 2 0 0 Z " fill="#59A9D1" transform="translate(317,186)"/>
<path d="M0 0 C3.12270126 2.51830747 3.94523098 3.7261549 4.75 7.75 C4.8325 8.8225 4.915 9.895 5 11 C2.03947516 7.63576723 1.07710178 4.30840713 0 0 Z " fill="#5E9DD2" transform="translate(299,144)"/>
<path d="M0 0 C2.22825644 2.22825644 2.69239369 3.65761628 3.625 6.625 C4.01558594 7.85089844 4.01558594 7.85089844 4.4140625 9.1015625 C4.60742188 9.72804688 4.80078125 10.35453125 5 11 C4.01 10.67 3.02 10.34 2 10 C0.47839986 6.3962102 0 3.94779314 0 0 Z " fill="#49C8CA" transform="translate(493,314)"/>
<path d="M0 0 C0.66 0.33 1.32 0.66 2 1 C2 2.65 2 4.3 2 6 C-0.97 5.505 -0.97 5.505 -4 5 C-4 4.34 -4 3.68 -4 3 C-3.01 3 -2.02 3 -1 3 C-0.67 2.01 -0.34 1.02 0 0 Z " fill="#42ABE1" transform="translate(85,202)"/>
<path d="M0 0 C0.99 0.33 1.98 0.66 3 1 C3.33 1.99 3.66 2.98 4 4 C4.66 4.33 5.32 4.66 6 5 C5.67 6.32 5.34 7.64 5 9 C5 8.34 5 7.68 5 7 C4.01 6.67 3.02 6.34 2 6 C0.8125 2.9375 0.8125 2.9375 0 0 Z " fill="#4A9EDC" transform="translate(360,161)"/>
<path d="M0 0 C1.32 0 2.64 0 4 0 C2.25 5.75 2.25 5.75 0 8 C-0.79953138 4.71303767 -1.09658936 3.28976808 0 0 Z " fill="#5991D4" transform="translate(262,121)"/>
<path d="M0 0 C2.50298434 2.93828597 3.46930939 5.17902761 4 9 C3.01 8.01 2.02 7.02 1 6 C0.01 6.495 0.01 6.495 -1 7 C-0.67 4.69 -0.34 2.38 0 0 Z " fill="#3FCED0" transform="translate(443,348)"/>
<path d="M0 0 C1.15941038 3.47823115 0.70820884 5.45895578 0 9 C-0.66 9 -1.32 9 -2 9 C-2.33 7.02 -2.66 5.04 -3 3 C-2.01 2.67 -1.02 2.34 0 2 C0 1.34 0 0.68 0 0 Z " fill="#54A5D3" transform="translate(234,192)"/>
<path d="M0 0 C0.33 0 0.66 0 1 0 C1 2.31 1 4.62 1 7 C0.34 7 -0.32 7 -1 7 C-1 7.66 -1 8.32 -1 9 C-1.66 9 -2.32 9 -3 9 C-2.01 6.03 -1.02 3.06 0 0 Z " fill="#56A1C7" transform="translate(179,189)"/>
<path d="M0 0 C0.66 0 1.32 0 2 0 C1.01 2.97 0.02 5.94 -1 9 C-1.33 9 -1.66 9 -2 9 C-2.25 3.375 -2.25 3.375 0 0 Z " fill="#5995CF" transform="translate(257,137)"/>
<path d="M0 0 C0.66 0 1.32 0 2 0 C1.25 5.75 1.25 5.75 -1 8 C-1.04241723 5.66705225 -1.04092937 3.33297433 -1 1 C-0.67 0.67 -0.34 0.34 0 0 Z " fill="#41CCCF" transform="translate(167,345)"/>
<path d="M0 0 C0.66 0 1.32 0 2 0 C3.35439668 2.70879335 3.06501451 5.00933268 3 8 C2.34 7.67 1.68 7.34 1 7 C0.59270772 4.67843403 0.25561323 2.3431213 0 0 Z " fill="#27D2DC" transform="translate(381,330)"/>
<path d="M0 0 C0.99 0 1.98 0 3 0 C3 1.65 3 3.3 3 5 C0.525 4.01 0.525 4.01 -2 3 C-1.34 2.67 -0.68 2.34 0 2 C0 1.34 0 0.68 0 0 Z " fill="#2CC4DC" transform="translate(194,276)"/>
<path d="M0 0 C1.32 1.32 2.64 2.64 4 4 C3.67 4.99 3.34 5.98 3 7 C2.34 7 1.68 7 1 7 C0.34 5.02 -0.32 3.04 -1 1 C-0.67 0.67 -0.34 0.34 0 0 Z " fill="#589FD7" transform="translate(308,162)"/>
</svg>
