<?xml version="1.0" encoding="UTF-8"?>
<svg xmlns="http://www.w3.org/2000/svg" xmlns:xlink="http://www.w3.org/1999/xlink" width="35px" height="35px" viewBox="0 0 35 35" version="1.1">
<g id="surface1">
<path style=" stroke:none;fill-rule:evenodd;fill:rgb(100%,100%,100%);fill-opacity:1;" d="M 11.007812 31.5 C 24.214844 31.5 31.4375 20.726562 31.4375 11.382812 C 31.4375 11.078125 31.4375 10.773438 31.417969 10.46875 C 32.824219 9.46875 34.035156 8.230469 35 6.808594 C 33.691406 7.382812 32.300781 7.757812 30.878906 7.921875 C 32.375 7.039062 33.496094 5.652344 34.035156 4.011719 C 32.625 4.835938 31.082031 5.417969 29.472656 5.726562 C 26.753906 2.882812 22.207031 2.742188 19.3125 5.421875 C 17.449219 7.148438 16.65625 9.722656 17.234375 12.175781 C 11.460938 11.890625 6.082031 9.207031 2.4375 4.789062 C 0.53125 8.019531 1.503906 12.152344 4.660156 14.226562 C 3.515625 14.195312 2.398438 13.890625 1.398438 13.34375 L 1.398438 13.433594 C 1.402344 16.796875 3.8125 19.695312 7.160156 20.363281 C 6.105469 20.648438 4.996094 20.6875 3.921875 20.484375 C 4.859375 23.363281 7.554688 25.335938 10.628906 25.394531 C 8.085938 27.363281 4.945312 28.429688 1.710938 28.425781 C 1.140625 28.425781 0.570312 28.390625 0 28.324219 C 3.285156 30.398438 7.105469 31.5 11.007812 31.496094 "/>
</g>
</svg>
