<?xml version="1.0" encoding="UTF-8"?>
<svg xmlns="http://www.w3.org/2000/svg" xmlns:xlink="http://www.w3.org/1999/xlink" width="35px" height="35px" viewBox="0 0 35 35" version="1.1">
<g id="surface1">
<path style="fill-rule:nonzero;fill:rgb(100%,100%,100%);fill-opacity:1;stroke-width:1;stroke-linecap:butt;stroke-linejoin:miter;stroke:rgb(100%,100%,100%);stroke-opacity:1;stroke-miterlimit:4;" d="M 256 0 C 114.628571 0 0 114.628571 0 256 C 0 397.371429 114.628571 512 256 512 C 397.371429 512 512 397.371429 512 256 C 512 114.628571 397.371429 0 256 0 Z M 418.285714 146 L 371.6 146 C 366.228571 123.485714 359.257143 102.8 351.028571 84.514286 C 366.8 93.257143 381.485714 104.285714 394.571429 117.428571 C 403.485714 126.285714 411.371429 135.828571 418.285714 146 Z M 452 256 C 452 273.085714 449.828571 289.885714 445.6 306 L 381.542857 306 C 383.142857 289.828571 384 273.085714 384 256 C 384 238.914286 383.142857 222.171429 381.542857 206 L 445.6 206 C 449.828571 222.114286 452 238.914286 452 256 Z M 256 452 C 250.8 452 234.971429 441.771429 219.142857 410.171429 C 212.628571 397.085714 206.971429 382.171429 202.4 366 L 309.6 366 C 305.028571 382.171429 299.371429 397.085714 292.857143 410.171429 C 277.028571 441.771429 261.2 452 256 452 Z M 190.8 306 C 188.971429 289.771429 188 272.971429 188 256 C 188 239.028571 188.971429 222.228571 190.8 206 L 321.2 206 C 323.028571 222.228571 324 239.028571 324 256 C 324 272.971429 323.028571 289.771429 321.2 306 Z M 60 256 C 60 238.914286 62.171429 222.114286 66.4 206 L 130.457143 206 C 128.857143 222.171429 128 238.914286 128 256 C 128 273.085714 128.857143 289.828571 130.457143 306 L 66.4 306 C 62.171429 289.885714 60 273.085714 60 256 Z M 256 60 C 261.2 60 277.028571 70.228571 292.857143 101.828571 C 299.371429 114.914286 305.028571 129.828571 309.6 146 L 202.4 146 C 206.971429 129.828571 212.628571 114.914286 219.142857 101.828571 C 234.971429 70.228571 250.8 60 256 60 Z M 160.971429 84.514286 C 152.742857 102.8 145.771429 123.485714 140.4 146 L 93.714286 146 C 100.628571 135.828571 108.514286 126.285714 117.428571 117.428571 C 130.514286 104.285714 145.2 93.257143 160.971429 84.514286 Z M 93.714286 366 L 140.4 366 C 145.771429 388.514286 152.742857 409.2 160.971429 427.485714 C 145.2 418.742857 130.514286 407.714286 117.428571 394.571429 C 108.514286 385.714286 100.628571 376.171429 93.714286 366 Z M 351.028571 427.485714 C 359.257143 409.2 366.228571 388.514286 371.6 366 L 418.285714 366 C 411.371429 376.171429 403.485714 385.714286 394.571429 394.571429 C 381.485714 407.714286 366.8 418.742857 351.028571 427.485714 Z M 351.028571 427.485714 " transform="matrix(0.0683594,0,0,0.0683594,0,0)"/>
</g>
</svg>
